<svg width="402" height="246" viewBox="0 0 402 246" fill="none" xmlns="http://www.w3.org/2000/svg">
<path fill-rule="evenodd" clip-rule="evenodd" d="M192.292 108.675C192.102 108.676 191.916 108.615 191.763 108.502L188.38 106.039L184.994 108.497C184.84 108.61 184.655 108.67 184.465 108.671C184.275 108.671 184.089 108.611 183.936 108.499C183.782 108.387 183.667 108.23 183.609 108.049C183.55 107.868 183.551 107.673 183.61 107.493L184.904 103.514L181.518 101.056C181.365 100.943 181.252 100.786 181.194 100.606C181.136 100.425 181.136 100.231 181.195 100.051C181.253 99.8711 181.367 99.7141 181.52 99.6024C181.673 99.4908 181.857 99.4302 182.047 99.4294H186.229L187.523 95.4512C187.583 95.2742 187.698 95.1205 187.85 95.0117C188.003 94.9029 188.185 94.8444 188.372 94.8444C188.559 94.8444 188.742 94.9029 188.894 95.0117C189.047 95.1205 189.161 95.2742 189.222 95.4512L190.515 99.4294H194.697C194.887 99.4302 195.071 99.4908 195.224 99.6024C195.377 99.7141 195.491 99.8711 195.55 100.051C195.608 100.231 195.609 100.425 195.551 100.606C195.493 100.786 195.379 100.943 195.227 101.056L191.841 103.514L193.134 107.495C193.192 107.675 193.192 107.869 193.133 108.049C193.074 108.229 192.96 108.386 192.807 108.497C192.658 108.609 192.478 108.671 192.292 108.675Z" fill="#F83718"/>
<path fill-rule="evenodd" clip-rule="evenodd" d="M208.699 104.097C208.509 104.097 208.324 104.037 208.17 103.924L203.316 100.407L198.461 103.924C198.308 104.037 198.123 104.097 197.933 104.098C197.743 104.098 197.557 104.038 197.404 103.926C197.25 103.814 197.135 103.657 197.077 103.476C197.018 103.295 197.019 103.1 197.078 102.919L198.93 97.2278L194.076 93.7083C193.922 93.5971 193.807 93.44 193.748 93.2594C193.689 93.0788 193.688 92.8842 193.747 92.7035C193.805 92.5228 193.92 92.3652 194.073 92.2536C194.227 92.1419 194.412 92.0819 194.602 92.0821H200.59L202.44 86.388C202.498 86.2076 202.613 86.0504 202.766 85.9389C202.92 85.8273 203.104 85.767 203.294 85.7666C203.484 85.7665 203.669 85.8265 203.823 85.9382C203.977 86.0498 204.092 86.2072 204.151 86.388L206 92.0821H211.988C212.178 92.0819 212.363 92.1419 212.517 92.2536C212.671 92.3652 212.785 92.5228 212.844 92.7035C212.902 92.8842 212.902 93.0788 212.843 93.2594C212.784 93.44 212.669 93.5971 212.515 93.7083L207.661 97.2278L209.51 102.919C209.569 103.1 209.57 103.294 209.511 103.475C209.453 103.656 209.339 103.813 209.185 103.924C209.044 104.03 208.875 104.09 208.699 104.097Z" fill="#F83718"/>
<path fill-rule="evenodd" clip-rule="evenodd" d="M214.688 108.675C214.546 108.675 214.406 108.641 214.279 108.577C214.153 108.512 214.043 108.419 213.96 108.304C213.877 108.189 213.822 108.056 213.8 107.916C213.778 107.776 213.789 107.632 213.833 107.498L215.127 103.519L211.741 101.061C211.587 100.949 211.472 100.792 211.413 100.612C211.354 100.431 211.354 100.236 211.412 100.056C211.471 99.875 211.585 99.7175 211.739 99.6058C211.893 99.4942 212.078 99.4342 212.268 99.4344H216.452L217.744 95.4562C217.803 95.2757 217.917 95.1184 218.071 95.0069C218.225 94.8953 218.41 94.8351 218.6 94.8349C218.79 94.8349 218.975 94.895 219.128 95.0066C219.282 95.1183 219.396 95.2756 219.455 95.4562L220.746 99.4344H224.93C225.12 99.4342 225.305 99.4942 225.459 99.6058C225.613 99.7175 225.727 99.875 225.786 100.056C225.844 100.236 225.844 100.431 225.785 100.612C225.726 100.792 225.611 100.949 225.457 101.061L222.074 103.519L223.365 107.5C223.423 107.68 223.423 107.875 223.364 108.055C223.306 108.236 223.191 108.393 223.037 108.504C222.884 108.615 222.699 108.675 222.509 108.675C222.319 108.675 222.135 108.614 221.981 108.502L218.605 106.039L215.207 108.502C215.056 108.613 214.875 108.674 214.688 108.675Z" fill="#F83718"/>
<path fill-rule="evenodd" clip-rule="evenodd" d="M230.811 128H175.267C172.98 127.997 170.786 127.087 169.169 125.47C167.551 123.852 166.641 121.659 166.639 119.371V70.1163C166.641 67.8288 167.551 65.6359 169.169 64.0186C170.787 62.4014 172.98 61.492 175.267 61.4901H230.811C233.098 61.492 235.292 62.4014 236.909 64.0186C238.527 65.6359 239.437 67.8288 239.44 70.1163V119.369C239.436 121.656 238.526 123.849 236.909 125.467C235.291 127.084 233.099 127.994 230.811 127.997V128ZM175.267 63.2886C173.457 63.2912 171.721 64.0116 170.441 65.2919C169.16 66.5723 168.44 68.308 168.437 70.1187V119.371C168.439 121.182 169.159 122.918 170.44 124.199C171.72 125.479 173.457 126.199 175.267 126.201H230.811C232.622 126.199 234.358 125.479 235.639 124.199C236.919 122.918 237.639 121.182 237.641 119.371V70.1163C237.639 68.3054 236.919 66.5693 235.639 65.2888C234.358 64.0083 232.622 63.2881 230.811 63.2862L175.267 63.2886Z" fill="#F83718"/>
<path fill-rule="evenodd" clip-rule="evenodd" d="M238.539 75.8708H167.539C167.417 75.8772 167.295 75.8587 167.181 75.8163C167.066 75.774 166.961 75.7088 166.873 75.6246C166.784 75.5405 166.714 75.4392 166.665 75.327C166.617 75.2147 166.592 75.0937 166.592 74.9716C166.592 74.8494 166.617 74.7285 166.665 74.6162C166.714 74.5039 166.784 74.4027 166.873 74.3185C166.961 74.2344 167.066 74.1692 167.181 74.1268C167.295 74.0845 167.417 74.066 167.539 74.0723H238.539C238.77 74.0843 238.987 74.1843 239.146 74.3516C239.305 74.5189 239.393 74.7408 239.393 74.9716C239.393 75.2023 239.305 75.4242 239.146 75.5916C238.987 75.7589 238.77 75.8589 238.539 75.8708Z" fill="#F83718"/>
<path fill-rule="evenodd" clip-rule="evenodd" d="M193.826 71.6018C193.25 71.6018 192.687 71.4309 192.208 71.1109C191.729 70.7908 191.355 70.3359 191.135 69.8037C190.914 69.2715 190.857 68.6859 190.969 68.1209C191.081 67.5559 191.359 67.0369 191.766 66.6296C192.174 66.2222 192.692 65.9448 193.257 65.8325C193.822 65.7201 194.408 65.7777 194.94 65.9982C195.473 66.2186 195.927 66.592 196.247 67.0709C196.568 67.5499 196.738 68.1131 196.738 68.6891C196.738 69.4616 196.432 70.2024 195.885 70.7486C195.339 71.2949 194.598 71.6018 193.826 71.6018Z" fill="#F83718"/>
<path fill-rule="evenodd" clip-rule="evenodd" d="M185.739 71.6018C185.163 71.6018 184.6 71.4309 184.121 71.1109C183.642 70.7908 183.268 70.3359 183.048 69.8037C182.827 69.2715 182.77 68.6859 182.882 68.1209C182.995 67.5559 183.272 67.0369 183.679 66.6296C184.087 66.2222 184.606 65.9448 185.171 65.8325C185.736 65.7201 186.321 65.7777 186.853 65.9982C187.386 66.2186 187.841 66.592 188.161 67.0709C188.481 67.5499 188.651 68.1131 188.651 68.6891C188.651 69.4616 188.344 70.2024 187.798 70.7486C187.252 71.2949 186.511 71.6018 185.739 71.6018Z" fill="#F83718"/>
<path fill-rule="evenodd" clip-rule="evenodd" d="M177.649 71.6018C177.073 71.6018 176.51 71.4309 176.031 71.1109C175.552 70.7908 175.178 70.3359 174.958 69.8037C174.738 69.2715 174.68 68.6859 174.792 68.1209C174.905 67.5559 175.182 67.0369 175.589 66.6296C175.997 66.2222 176.516 65.9448 177.081 65.8325C177.646 65.7201 178.231 65.7777 178.764 65.9982C179.296 66.2186 179.751 66.592 180.071 67.0709C180.391 67.5499 180.561 68.1131 180.561 68.6891C180.561 69.4616 180.255 70.2024 179.708 70.7486C179.162 71.2949 178.421 71.6018 177.649 71.6018Z" fill="#F83718"/>
<path fill-rule="evenodd" clip-rule="evenodd" d="M231.35 120.808H174.729C174.611 120.809 174.494 120.785 174.385 120.74C174.276 120.695 174.176 120.629 174.093 120.546C174.01 120.462 173.943 120.363 173.898 120.254C173.853 120.145 173.83 120.028 173.831 119.91V82.1625C173.831 81.9243 173.925 81.6959 174.094 81.5275C174.262 81.3591 174.49 81.2645 174.729 81.2645H231.35C231.588 81.2645 231.817 81.3591 231.985 81.5275C232.154 81.6959 232.248 81.9243 232.248 82.1625V119.91C232.248 120.148 232.154 120.377 231.985 120.545C231.817 120.714 231.588 120.808 231.35 120.808ZM175.629 119.012H230.452V83.0606H175.629V119.012Z" fill="#F83718"/>
<path fill-rule="evenodd" clip-rule="evenodd" d="M231.35 114.517H174.729C174.498 114.505 174.281 114.405 174.122 114.238C173.964 114.07 173.875 113.848 173.875 113.618C173.875 113.387 173.964 113.165 174.122 112.998C174.281 112.83 174.498 112.73 174.729 112.718H231.35C231.581 112.73 231.798 112.83 231.956 112.998C232.115 113.165 232.204 113.387 232.204 113.618C232.204 113.848 232.115 114.07 231.956 114.238C231.798 114.405 231.581 114.505 231.35 114.517Z" fill="#F83718"/>
<path fill-rule="evenodd" clip-rule="evenodd" d="M234.046 56.0993C233.157 56.0998 232.288 55.8366 231.548 55.3429C230.809 54.8493 230.232 54.1474 229.892 53.326C229.551 52.5047 229.462 51.6008 229.635 50.7287C229.808 49.8565 230.236 49.0554 230.865 48.4265C231.493 47.7976 232.294 47.3692 233.166 47.1956C234.038 47.0219 234.942 47.1108 235.764 47.451C236.585 47.7911 237.287 48.3672 237.781 49.1065C238.275 49.8458 238.539 50.715 238.539 51.6041C238.538 52.7955 238.064 53.9377 237.222 54.7804C236.38 55.623 235.238 56.0974 234.046 56.0993ZM234.046 48.9099C233.513 48.9095 232.991 49.0672 232.548 49.3633C232.104 49.6593 231.758 50.0802 231.553 50.5729C231.349 51.0656 231.295 51.6079 231.399 52.1312C231.503 52.6544 231.759 53.1352 232.136 53.5125C232.513 53.8899 232.994 54.1469 233.517 54.2512C234.04 54.3554 234.582 54.3022 235.075 54.0982C235.568 53.8941 235.99 53.5485 236.286 53.1049C236.582 52.6614 236.741 52.14 236.741 51.6066C236.74 50.892 236.456 50.2068 235.951 49.7013C235.446 49.1958 234.761 48.9112 234.046 48.9099Z" fill="#F83718"/>
<path fill-rule="evenodd" clip-rule="evenodd" d="M181.918 57.0094C180.851 57.0094 179.809 56.693 178.922 56.1003C178.035 55.5076 177.343 54.6651 176.935 53.6795C176.527 52.6939 176.42 51.6093 176.629 50.5631C176.837 49.5169 177.351 48.5559 178.105 47.8017C178.86 47.0475 179.821 46.5341 180.867 46.3263C181.914 46.1185 182.998 46.2256 183.984 46.6342C184.969 47.0427 185.811 47.7344 186.404 48.6216C186.996 49.5089 187.312 50.5518 187.311 51.6186C187.309 53.0481 186.741 54.4185 185.729 55.4291C184.718 56.4398 183.348 57.0081 181.918 57.0094ZM181.918 48.0288C181.207 48.0288 180.512 48.2396 179.921 48.6347C179.33 49.0298 178.869 49.5914 178.597 50.2484C178.325 50.9054 178.254 51.6282 178.393 52.3256C178.532 53.023 178.874 53.6635 179.377 54.1661C179.88 54.6688 180.521 55.0109 181.218 55.1493C181.916 55.2878 182.639 55.2162 183.295 54.9438C183.952 54.6713 184.513 54.2102 184.908 53.6188C185.303 53.0273 185.513 52.3321 185.513 51.621C185.514 51.1478 185.423 50.6789 185.243 50.2413C185.063 49.8036 184.798 49.4058 184.464 49.0705C184.13 48.7352 183.734 48.4691 183.297 48.2874C182.86 48.1058 182.391 48.0121 181.918 48.0118V48.0288Z" fill="#F83718"/>
<path d="M144.361 157.176C146.841 157.176 148.745 157.616 150.073 158.496C151.401 159.36 152.065 160.784 152.065 162.768C152.065 164.768 151.393 166.216 150.049 167.112C148.705 167.992 146.785 168.432 144.289 168.432H143.113V174H139.369V157.608C140.185 157.448 141.049 157.336 141.961 157.272C142.873 157.208 143.673 157.176 144.361 157.176ZM144.601 160.368C144.329 160.368 144.057 160.376 143.785 160.392C143.529 160.408 143.305 160.424 143.113 160.44V165.24H144.289C145.585 165.24 146.561 165.064 147.217 164.712C147.873 164.36 148.201 163.704 148.201 162.744C148.201 162.28 148.113 161.896 147.937 161.592C147.777 161.288 147.537 161.048 147.217 160.872C146.913 160.68 146.537 160.552 146.089 160.488C145.641 160.408 145.145 160.368 144.601 160.368ZM154.815 174V157.368H166.047V160.512H158.559V163.776H165.207V166.848H158.559V170.856H166.599V174H154.815ZM190.009 174H169.369V157.368H173.113V170.832H177.817V157.368H181.561V170.832H186.265V157.368H190.009V174ZM193.838 174V157.368H205.07V160.512H197.582V163.776H204.23V166.848H197.582V170.856H205.622V174H193.838ZM218.425 157.368H222.169V174H218.425V166.944H212.137V174H208.393V157.368H212.137V163.728H218.425V157.368ZM226.018 174V157.368H229.738V167.184C230.314 166.32 230.93 165.424 231.586 164.496C232.242 163.552 232.898 162.648 233.554 161.784C234.226 160.904 234.882 160.08 235.522 159.312C236.162 158.544 236.746 157.896 237.274 157.368H240.322V174H236.626V163.104C235.218 164.752 233.89 166.504 232.642 168.36C231.394 170.216 230.234 172.096 229.162 174H226.018ZM251.646 160.416C251.166 160.416 250.702 160.456 250.254 160.536C249.822 160.6 249.438 160.72 249.102 160.896C248.766 161.056 248.494 161.288 248.286 161.592C248.078 161.88 247.974 162.248 247.974 162.696C247.974 163.544 248.27 164.128 248.862 164.448C249.47 164.768 250.366 164.928 251.55 164.928H253.11V160.44C252.918 160.424 252.71 160.416 252.486 160.416C252.262 160.416 251.982 160.416 251.646 160.416ZM251.814 157.2C252.486 157.2 253.27 157.24 254.166 157.32C255.078 157.4 255.974 157.536 256.854 157.728V174H253.11V168.024H251.958C251.75 168.024 251.55 168.024 251.358 168.024C251.166 168.024 250.934 168.008 250.662 167.976C250.134 168.696 249.55 169.6 248.91 170.688C248.286 171.76 247.702 172.864 247.158 174H243.198C243.486 173.344 243.79 172.696 244.11 172.056C244.446 171.416 244.782 170.808 245.118 170.232C245.454 169.656 245.782 169.128 246.102 168.648C246.422 168.152 246.718 167.72 246.99 167.352C246.638 167.192 246.286 166.984 245.934 166.728C245.598 166.456 245.294 166.136 245.022 165.768C244.75 165.4 244.526 164.968 244.35 164.472C244.19 163.96 244.11 163.376 244.11 162.72C244.11 161.808 244.286 161.008 244.638 160.32C245.006 159.632 245.518 159.056 246.174 158.592C246.846 158.128 247.654 157.784 248.598 157.56C249.558 157.32 250.63 157.2 251.814 157.2ZM90.5972 199.832H92.9972C93.5892 198.808 94.0532 197.792 94.3892 196.784C94.7252 195.776 94.9732 194.752 95.1332 193.712C95.3092 192.672 95.4132 191.6 95.4452 190.496C95.4932 189.392 95.5172 188.232 95.5172 187.016V186.368H106.509V199.832H109.365V207.44H105.765V203H94.1972V207.44H90.5972V199.832ZM99.0452 189.536C99.0132 190.4 98.9572 191.288 98.8772 192.2C98.7972 193.112 98.6772 194.016 98.5172 194.912C98.3572 195.792 98.1412 196.656 97.8692 197.504C97.6132 198.336 97.2852 199.112 96.8852 199.832H102.861V189.536H99.0452ZM119.395 189.536C119.347 190.608 119.283 191.688 119.203 192.776C119.139 193.848 119.011 194.888 118.819 195.896C118.643 196.904 118.379 197.848 118.027 198.728C117.691 199.608 117.219 200.384 116.611 201.056C116.019 201.728 115.275 202.264 114.379 202.664C113.483 203.064 112.387 203.288 111.091 203.336L110.683 200.072C111.835 199.944 112.723 199.656 113.347 199.208C113.971 198.744 114.443 198.04 114.763 197.096C115.163 195.928 115.443 194.424 115.603 192.584C115.779 190.728 115.867 188.656 115.867 186.368H127.219V203H123.475V189.536H119.395ZM138.549 189.416C138.069 189.416 137.605 189.456 137.157 189.536C136.725 189.6 136.341 189.72 136.005 189.896C135.669 190.056 135.397 190.288 135.189 190.592C134.981 190.88 134.877 191.248 134.877 191.696C134.877 192.544 135.173 193.128 135.765 193.448C136.373 193.768 137.269 193.928 138.453 193.928H140.013V189.44C139.821 189.424 139.613 189.416 139.389 189.416C139.165 189.416 138.885 189.416 138.549 189.416ZM138.717 186.2C139.389 186.2 140.173 186.24 141.069 186.32C141.981 186.4 142.877 186.536 143.757 186.728V203H140.013V197.024H138.861C138.653 197.024 138.453 197.024 138.261 197.024C138.069 197.024 137.837 197.008 137.565 196.976C137.037 197.696 136.453 198.6 135.813 199.688C135.189 200.76 134.605 201.864 134.061 203H130.101C130.389 202.344 130.693 201.696 131.013 201.056C131.349 200.416 131.685 199.808 132.021 199.232C132.357 198.656 132.685 198.128 133.005 197.648C133.325 197.152 133.621 196.72 133.893 196.352C133.541 196.192 133.189 195.984 132.837 195.728C132.501 195.456 132.197 195.136 131.925 194.768C131.653 194.4 131.429 193.968 131.253 193.472C131.093 192.96 131.013 192.376 131.013 191.72C131.013 190.808 131.189 190.008 131.541 189.32C131.909 188.632 132.421 188.056 133.077 187.592C133.749 187.128 134.557 186.784 135.501 186.56C136.461 186.32 137.533 186.2 138.717 186.2ZM153.373 203V186.368H164.605V189.512H157.117V192.776H163.765V195.848H157.117V199.856H165.157V203H153.373ZM166.608 194.216H173.568V197.456H166.608V194.216ZM184.137 203.336C181.433 203.336 179.369 202.584 177.945 201.08C176.537 199.576 175.833 197.44 175.833 194.672C175.833 193.296 176.049 192.072 176.481 191C176.913 189.912 177.505 189 178.257 188.264C179.009 187.512 179.905 186.944 180.945 186.56C181.985 186.176 183.113 185.984 184.329 185.984C185.033 185.984 185.673 186.04 186.249 186.152C186.825 186.248 187.329 186.368 187.761 186.512C188.193 186.64 188.553 186.776 188.841 186.92C189.129 187.064 189.337 187.176 189.465 187.256L188.385 190.28C187.873 190.008 187.273 189.776 186.585 189.584C185.913 189.392 185.145 189.296 184.281 189.296C183.705 189.296 183.137 189.392 182.577 189.584C182.033 189.776 181.545 190.088 181.113 190.52C180.697 190.936 180.361 191.48 180.105 192.152C179.849 192.824 179.721 193.64 179.721 194.6C179.721 195.368 179.801 196.088 179.961 196.76C180.137 197.416 180.409 197.984 180.777 198.464C181.161 198.944 181.657 199.328 182.265 199.616C182.873 199.888 183.609 200.024 184.473 200.024C185.017 200.024 185.505 199.992 185.937 199.928C186.369 199.864 186.753 199.792 187.089 199.712C187.425 199.616 187.721 199.512 187.977 199.4C188.233 199.288 188.465 199.184 188.673 199.088L189.705 202.088C189.177 202.408 188.433 202.696 187.473 202.952C186.513 203.208 185.401 203.336 184.137 203.336ZM194.65 194.672C194.65 195.488 194.746 196.224 194.938 196.88C195.146 197.536 195.434 198.104 195.802 198.584C196.186 199.048 196.65 199.408 197.194 199.664C197.738 199.92 198.362 200.048 199.066 200.048C199.754 200.048 200.37 199.92 200.914 199.664C201.474 199.408 201.938 199.048 202.306 198.584C202.69 198.104 202.978 197.536 203.17 196.88C203.378 196.224 203.482 195.488 203.482 194.672C203.482 193.856 203.378 193.12 203.17 192.464C202.978 191.792 202.69 191.224 202.306 190.76C201.938 190.28 201.474 189.912 200.914 189.656C200.37 189.4 199.754 189.272 199.066 189.272C198.362 189.272 197.738 189.408 197.194 189.68C196.65 189.936 196.186 190.304 195.802 190.784C195.434 191.248 195.146 191.816 194.938 192.488C194.746 193.144 194.65 193.872 194.65 194.672ZM207.346 194.672C207.346 196.096 207.13 197.352 206.698 198.44C206.282 199.512 205.706 200.416 204.97 201.152C204.234 201.872 203.354 202.416 202.33 202.784C201.322 203.152 200.234 203.336 199.066 203.336C197.93 203.336 196.858 203.152 195.85 202.784C194.842 202.416 193.962 201.872 193.21 201.152C192.458 200.416 191.866 199.512 191.434 198.44C191.002 197.352 190.786 196.096 190.786 194.672C190.786 193.248 191.01 192 191.458 190.928C191.906 189.84 192.506 188.928 193.258 188.192C194.026 187.456 194.906 186.904 195.898 186.536C196.906 186.168 197.962 185.984 199.066 185.984C200.202 185.984 201.274 186.168 202.282 186.536C203.29 186.904 204.17 187.456 204.922 188.192C205.674 188.928 206.266 189.84 206.698 190.928C207.13 192 207.346 193.248 207.346 194.672ZM214.883 186.368C215.171 186.896 215.499 187.552 215.867 188.336C216.251 189.104 216.643 189.944 217.043 190.856C217.459 191.752 217.867 192.672 218.267 193.616C218.667 194.56 219.043 195.448 219.395 196.28C219.747 195.448 220.123 194.56 220.523 193.616C220.923 192.672 221.323 191.752 221.723 190.856C222.139 189.944 222.531 189.104 222.899 188.336C223.283 187.552 223.619 186.896 223.907 186.368H227.315C227.475 187.472 227.619 188.712 227.747 190.088C227.891 191.448 228.011 192.872 228.107 194.36C228.219 195.832 228.315 197.312 228.395 198.8C228.491 200.288 228.571 201.688 228.635 203H224.987C224.939 201.384 224.875 199.624 224.795 197.72C224.715 195.816 224.595 193.896 224.435 191.96C224.147 192.632 223.827 193.376 223.475 194.192C223.123 195.008 222.771 195.824 222.419 196.64C222.083 197.456 221.755 198.24 221.435 198.992C221.115 199.728 220.843 200.36 220.619 200.888H218.003C217.779 200.36 217.507 199.728 217.187 198.992C216.867 198.24 216.531 197.456 216.179 196.64C215.843 195.824 215.499 195.008 215.147 194.192C214.795 193.376 214.475 192.632 214.187 191.96C214.027 193.896 213.907 195.816 213.827 197.72C213.747 199.624 213.683 201.384 213.635 203H209.987C210.051 201.688 210.123 200.288 210.203 198.8C210.299 197.312 210.395 195.832 210.491 194.36C210.603 192.872 210.723 191.448 210.851 190.088C210.995 188.712 211.147 187.472 211.307 186.368H214.883ZM236.422 186.368C236.71 186.896 237.038 187.552 237.406 188.336C237.79 189.104 238.182 189.944 238.582 190.856C238.998 191.752 239.406 192.672 239.806 193.616C240.206 194.56 240.582 195.448 240.934 196.28C241.286 195.448 241.662 194.56 242.062 193.616C242.462 192.672 242.862 191.752 243.262 190.856C243.678 189.944 244.07 189.104 244.438 188.336C244.822 187.552 245.158 186.896 245.446 186.368H248.854C249.014 187.472 249.158 188.712 249.286 190.088C249.43 191.448 249.55 192.872 249.646 194.36C249.758 195.832 249.854 197.312 249.934 198.8C250.03 200.288 250.11 201.688 250.174 203H246.526C246.478 201.384 246.414 199.624 246.334 197.72C246.254 195.816 246.134 193.896 245.974 191.96C245.686 192.632 245.366 193.376 245.014 194.192C244.662 195.008 244.31 195.824 243.958 196.64C243.622 197.456 243.294 198.24 242.974 198.992C242.654 199.728 242.382 200.36 242.158 200.888H239.542C239.318 200.36 239.046 199.728 238.726 198.992C238.406 198.24 238.07 197.456 237.718 196.64C237.382 195.824 237.038 195.008 236.686 194.192C236.334 193.376 236.014 192.632 235.726 191.96C235.566 193.896 235.446 195.816 235.366 197.72C235.286 199.624 235.222 201.384 235.174 203H231.526C231.59 201.688 231.662 200.288 231.742 198.8C231.838 197.312 231.934 195.832 232.03 194.36C232.142 192.872 232.262 191.448 232.39 190.088C232.534 188.712 232.686 187.472 232.846 186.368H236.422ZM253.545 203V186.368H264.777V189.512H257.289V192.776H263.937V195.848H257.289V199.856H265.329V203H253.545ZM272.972 186.176C275.468 186.176 277.38 186.624 278.708 187.52C280.036 188.4 280.7 189.776 280.7 191.648C280.7 192.816 280.428 193.768 279.884 194.504C279.356 195.224 278.588 195.792 277.58 196.208C277.916 196.624 278.268 197.104 278.636 197.648C279.004 198.176 279.364 198.736 279.716 199.328C280.084 199.904 280.436 200.512 280.772 201.152C281.108 201.776 281.42 202.392 281.708 203H277.508C277.204 202.456 276.892 201.904 276.572 201.344C276.268 200.784 275.948 200.24 275.612 199.712C275.292 199.184 274.972 198.688 274.652 198.224C274.332 197.744 274.012 197.312 273.692 196.928H271.844V203H268.1V186.608C268.916 186.448 269.756 186.336 270.62 186.272C271.5 186.208 272.284 186.176 272.972 186.176ZM273.188 189.368C272.916 189.368 272.668 189.376 272.444 189.392C272.236 189.408 272.036 189.424 271.844 189.44V193.952H272.9C274.308 193.952 275.316 193.776 275.924 193.424C276.532 193.072 276.836 192.472 276.836 191.624C276.836 190.808 276.524 190.232 275.9 189.896C275.292 189.544 274.388 189.368 273.188 189.368ZM291.27 203.336C288.566 203.336 286.502 202.584 285.078 201.08C283.67 199.576 282.966 197.44 282.966 194.672C282.966 193.296 283.182 192.072 283.614 191C284.046 189.912 284.638 189 285.39 188.264C286.142 187.512 287.038 186.944 288.078 186.56C289.118 186.176 290.246 185.984 291.462 185.984C292.166 185.984 292.806 186.04 293.382 186.152C293.958 186.248 294.462 186.368 294.894 186.512C295.326 186.64 295.686 186.776 295.974 186.92C296.262 187.064 296.47 187.176 296.598 187.256L295.518 190.28C295.006 190.008 294.406 189.776 293.718 189.584C293.046 189.392 292.278 189.296 291.414 189.296C290.838 189.296 290.27 189.392 289.71 189.584C289.166 189.776 288.678 190.088 288.246 190.52C287.83 190.936 287.494 191.48 287.238 192.152C286.982 192.824 286.854 193.64 286.854 194.6C286.854 195.368 286.934 196.088 287.094 196.76C287.27 197.416 287.542 197.984 287.91 198.464C288.294 198.944 288.79 199.328 289.398 199.616C290.006 199.888 290.742 200.024 291.606 200.024C292.15 200.024 292.638 199.992 293.07 199.928C293.502 199.864 293.886 199.792 294.222 199.712C294.558 199.616 294.854 199.512 295.11 199.4C295.366 199.288 295.598 199.184 295.806 199.088L296.838 202.088C296.31 202.408 295.566 202.696 294.606 202.952C293.646 203.208 292.534 203.336 291.27 203.336ZM299.248 203V186.368H310.48V189.512H302.992V192.776H309.64V195.848H302.992V199.856H311.032V203H299.248Z" fill="black"/>
</svg>
