<svg width="402" height="246" viewBox="0 0 402 246" fill="none" xmlns="http://www.w3.org/2000/svg">
<g opacity="0.92">
<path fill-rule="evenodd" clip-rule="evenodd" d="M231.011 91.5604L225.349 91.541C225.118 91.541 224.896 91.4492 224.733 91.2858C224.569 91.1223 224.477 90.9007 224.477 90.6696C224.477 90.4385 224.569 90.2169 224.733 90.0535C224.896 89.8901 225.118 89.7983 225.349 89.7983L231.009 89.8177C233.966 89.7743 236.786 88.5693 238.862 86.4631C240.937 84.3569 242.101 81.5186 242.101 78.5616C242.101 75.6046 240.937 72.7664 238.862 70.6602C236.786 68.554 233.966 67.349 231.009 67.3056C230.81 67.3056 230.599 67.3055 230.363 67.325C230.192 67.3347 230.023 67.2939 229.875 67.2075C229.727 67.1212 229.608 66.9932 229.533 66.8395C228.68 65.1133 227.472 63.5867 225.988 62.3593C224.504 61.1319 222.778 60.2314 220.923 59.7166C219.067 59.2019 217.124 59.0845 215.22 59.3721C213.316 59.6597 211.494 60.3458 209.873 61.3856C209.764 61.4557 209.642 61.5007 209.514 61.5174C209.386 61.5342 209.255 61.5223 209.133 61.4826C209.01 61.4428 208.897 61.3763 208.803 61.2878C208.709 61.1992 208.636 61.0909 208.589 60.9706C206.938 56.7804 203.876 53.2977 199.932 51.123C195.988 48.9483 191.409 48.2179 186.984 49.0577C182.559 49.8975 178.566 52.2549 175.693 55.7234C172.821 59.1919 171.248 63.5542 171.247 68.058C171.247 69.1265 171.334 70.1931 171.509 71.2473C171.545 71.4666 171.496 71.6914 171.372 71.8758C171.248 72.0602 171.058 72.1904 170.841 72.24C168.723 72.7202 166.857 73.9643 165.598 75.7344C164.34 77.5045 163.778 79.6764 164.021 81.8347C164.263 83.9929 165.293 85.9861 166.912 87.4329C168.532 88.8797 170.628 89.6786 172.8 89.6769L191.099 89.7255C191.33 89.7255 191.551 89.8173 191.715 89.9807C191.878 90.1441 191.97 90.3657 191.97 90.5968C191.97 90.8279 191.878 91.0495 191.715 91.213C191.551 91.3764 191.33 91.4682 191.099 91.4682L172.8 91.4221C170.269 91.4229 167.822 90.5158 165.903 88.8656C163.984 87.2153 162.72 84.9314 162.342 82.4288C161.964 79.9262 162.496 77.371 163.842 75.2274C165.188 73.0839 167.258 71.4942 169.676 70.7473C169.294 67.7758 169.55 64.7569 170.426 61.8919C171.302 59.0269 172.779 56.3815 174.757 54.1319C176.736 51.8824 179.172 50.0804 181.902 48.846C184.631 47.6115 187.593 46.973 190.589 46.973C194.651 46.9723 198.626 48.1447 202.038 50.3493C205.449 52.5538 208.152 55.6968 209.82 59.4002C211.603 58.418 213.564 57.7984 215.588 57.577C217.612 57.3557 219.661 57.537 221.614 58.1105C223.568 58.6839 225.39 59.6383 226.973 60.9185C228.557 62.1988 229.871 63.7797 230.841 65.5701H231.014C234.462 65.5701 237.768 66.9398 240.206 69.3777C242.644 71.8157 244.014 75.1223 244.014 78.5701C244.014 82.0179 242.644 85.3245 240.206 87.7625C237.768 90.2005 234.462 91.5701 231.014 91.5701L231.011 91.5604Z" fill="#F83718"/>
<path fill-rule="evenodd" clip-rule="evenodd" d="M178.269 68.0191C178.038 68.0191 177.816 67.9273 177.653 67.7639C177.489 67.6005 177.397 67.3788 177.397 67.1477C177.401 63.4492 178.872 59.9032 181.487 57.2877C184.102 54.6722 187.648 53.2008 191.346 53.1963C191.465 53.19 191.583 53.208 191.695 53.249C191.806 53.29 191.908 53.3533 191.994 53.4349C192.08 53.5166 192.148 53.6149 192.195 53.7239C192.242 53.8328 192.266 53.9502 192.266 54.0688C192.266 54.1875 192.242 54.3049 192.195 54.4138C192.148 54.5228 192.08 54.6211 191.994 54.7028C191.908 54.7844 191.806 54.8477 191.695 54.8887C191.583 54.9297 191.465 54.9477 191.346 54.9414C188.11 54.9453 185.008 56.2325 182.72 58.5208C180.431 60.8091 179.144 63.9116 179.14 67.1477C179.14 67.2623 179.118 67.3757 179.075 67.4816C179.031 67.5874 178.967 67.6836 178.886 67.7646C178.805 67.8456 178.709 67.9097 178.603 67.9534C178.497 67.9971 178.383 68.0194 178.269 68.0191Z" fill="#F83718"/>
<path fill-rule="evenodd" clip-rule="evenodd" d="M234.941 56.6842C233.906 56.6837 232.895 56.3765 232.035 55.8015C231.176 55.2265 230.505 54.4094 230.11 53.4536C229.714 52.4978 229.611 51.4462 229.813 50.4317C230.015 49.4172 230.514 48.4854 231.245 47.7542C231.977 47.0229 232.909 46.525 233.924 46.3234C234.938 46.1217 235.99 46.2254 236.945 46.6214C237.901 47.0174 238.718 47.6878 239.292 48.5479C239.867 49.408 240.174 50.4192 240.174 51.4536C240.172 52.8407 239.62 54.1703 238.639 55.1509C237.658 56.1315 236.328 56.6829 234.941 56.6842ZM234.941 47.9657C234.251 47.9657 233.576 48.1703 233.003 48.5536C232.429 48.9368 231.982 49.4815 231.718 50.1189C231.454 50.7562 231.385 51.4575 231.52 52.134C231.654 52.8106 231.987 53.4321 232.474 53.9199C232.962 54.4077 233.584 54.7399 234.26 54.8745C234.937 55.009 235.638 54.94 236.275 54.676C236.913 54.412 237.457 53.9649 237.841 53.3914C238.224 52.8178 238.429 52.1434 238.429 51.4536C238.428 50.5288 238.06 49.642 237.406 48.988C236.752 48.3341 235.865 47.9664 234.941 47.9657Z" fill="#F83718"/>
<path fill-rule="evenodd" clip-rule="evenodd" d="M173.038 119.463C171.658 119.464 170.309 119.055 169.162 118.289C168.015 117.523 167.12 116.433 166.592 115.159C166.063 113.884 165.925 112.481 166.194 111.128C166.463 109.775 167.127 108.532 168.102 107.556C169.078 106.58 170.321 105.915 171.674 105.646C173.027 105.377 174.43 105.515 175.705 106.042C176.979 106.57 178.069 107.465 178.836 108.612C179.602 109.759 180.012 111.108 180.012 112.487C180.009 114.336 179.273 116.109 177.966 117.416C176.659 118.724 174.887 119.46 173.038 119.463ZM173.038 107.254C172.003 107.254 170.991 107.56 170.13 108.135C169.269 108.71 168.598 109.527 168.202 110.483C167.805 111.439 167.701 112.492 167.903 113.507C168.105 114.522 168.603 115.455 169.335 116.187C170.066 116.919 170.999 117.418 172.014 117.62C173.029 117.822 174.081 117.718 175.038 117.322C175.994 116.926 176.812 116.256 177.387 115.395C177.962 114.534 178.269 113.523 178.269 112.487C178.267 111.1 177.716 109.77 176.736 108.789C175.755 107.808 174.425 107.256 173.038 107.254Z" fill="#F83718"/>
<rect x="191.714" y="72.0725" width="33.0097" height="54.6117" rx="4.97573" fill="white" stroke="#F83718" stroke-width="1.69903"/>
<path d="M191.593 115.641H224.602" stroke="#F83718" stroke-width="1.69903"/>
<circle cx="208.34" cy="120.98" r="2.18447" fill="#F83718" stroke="#F83718" stroke-width="1.45631"/>
<path fill-rule="evenodd" clip-rule="evenodd" d="M201.646 99.9568C201.532 99.9574 201.422 99.9213 201.33 99.8538L199.309 98.3821L197.286 99.8509C197.194 99.918 197.084 99.9542 196.97 99.9544C196.857 99.9546 196.746 99.9188 196.654 99.852C196.562 99.7853 196.494 99.6911 196.459 99.583C196.424 99.475 196.424 99.3586 196.46 99.2507L197.232 96.8742L195.21 95.4054C195.119 95.3384 195.051 95.2444 195.016 95.1366C194.981 95.0289 194.982 94.913 195.017 94.8054C195.052 94.6978 195.12 94.604 195.211 94.5373C195.303 94.4706 195.413 94.4344 195.526 94.4339H198.024L198.797 92.0574C198.833 91.9517 198.902 91.8599 198.993 91.7949C199.084 91.7299 199.193 91.6949 199.304 91.6949C199.416 91.6949 199.525 91.7299 199.616 91.7949C199.707 91.8599 199.776 91.9517 199.812 92.0574L200.585 94.4339H203.083C203.196 94.4344 203.306 94.4706 203.398 94.5373C203.489 94.604 203.557 94.6978 203.592 94.8054C203.627 94.913 203.627 95.0289 203.593 95.1366C203.558 95.2444 203.49 95.3384 203.399 95.4054L201.376 96.8742L202.149 99.2521C202.184 99.3598 202.184 99.4757 202.148 99.5833C202.113 99.6908 202.045 99.7845 201.953 99.8509C201.865 99.9176 201.757 99.9546 201.646 99.9568Z" fill="#F83718"/>
<path fill-rule="evenodd" clip-rule="evenodd" d="M211.448 97.2223C211.334 97.2227 211.223 97.1866 211.132 97.1193L208.232 95.0183L205.332 97.1193C205.24 97.1864 205.13 97.2226 205.016 97.2228C204.902 97.223 204.792 97.1871 204.7 97.1204C204.608 97.0536 204.54 96.9594 204.505 96.8514C204.47 96.7433 204.47 96.6269 204.505 96.519L205.612 93.1189L202.712 91.0165C202.62 90.95 202.551 90.8561 202.516 90.7483C202.481 90.6404 202.48 90.5242 202.515 90.4162C202.55 90.3082 202.619 90.2141 202.71 90.1474C202.802 90.0807 202.913 90.0449 203.026 90.045H206.603L207.708 86.6434C207.743 86.5357 207.812 86.4418 207.903 86.3751C207.995 86.3085 208.105 86.2724 208.219 86.2722C208.332 86.2721 208.443 86.308 208.535 86.3747C208.627 86.4414 208.695 86.5354 208.731 86.6434L209.835 90.045H213.412C213.526 90.0449 213.637 90.0807 213.728 90.1474C213.82 90.2141 213.888 90.3082 213.923 90.4162C213.958 90.5242 213.958 90.6404 213.923 90.7483C213.888 90.8561 213.819 90.95 213.727 91.0165L210.827 93.1189L211.932 96.519C211.967 96.6267 211.968 96.743 211.933 96.8508C211.898 96.9587 211.83 97.0528 211.738 97.1193C211.654 97.1823 211.553 97.2182 211.448 97.2223Z" fill="#F83718"/>
<path fill-rule="evenodd" clip-rule="evenodd" d="M215.025 99.9572C214.94 99.9573 214.856 99.9372 214.781 99.8988C214.705 99.8603 214.64 99.8044 214.59 99.7358C214.54 99.6672 214.507 99.5877 214.494 99.504C214.481 99.4202 214.488 99.3346 214.514 99.254L215.287 96.8775L213.264 95.4087C213.172 95.3423 213.104 95.2484 213.069 95.1405C213.033 95.0326 213.033 94.9164 213.068 94.8084C213.103 94.7004 213.171 94.6063 213.263 94.5396C213.355 94.4729 213.466 94.4371 213.579 94.4372H216.079L216.85 92.0607C216.886 91.9529 216.954 91.859 217.046 91.7923C217.138 91.7257 217.248 91.6897 217.362 91.6896C217.475 91.6896 217.586 91.7255 217.678 91.7922C217.769 91.8588 217.837 91.9529 217.872 92.0607L218.644 94.4372H221.144C221.257 94.4371 221.368 94.4729 221.459 94.5396C221.551 94.6063 221.62 94.7004 221.655 94.8084C221.689 94.9164 221.689 95.0326 221.654 95.1405C221.619 95.2484 221.55 95.3423 221.458 95.4087L219.437 96.8775L220.208 99.2554C220.243 99.3632 220.243 99.4793 220.208 99.5871C220.173 99.6949 220.104 99.7887 220.013 99.8552C219.921 99.9217 219.81 99.9574 219.697 99.9573C219.584 99.9571 219.473 99.921 219.382 99.8542L217.365 98.3825L215.335 99.8542C215.245 99.9204 215.136 99.9565 215.025 99.9572Z" fill="#F83718"/>
<path d="M161.688 157.368C161.976 157.896 162.304 158.552 162.672 159.336C163.056 160.104 163.448 160.944 163.848 161.856C164.264 162.752 164.672 163.672 165.072 164.616C165.472 165.56 165.848 166.448 166.2 167.28C166.552 166.448 166.928 165.56 167.328 164.616C167.728 163.672 168.128 162.752 168.528 161.856C168.944 160.944 169.336 160.104 169.704 159.336C170.088 158.552 170.424 157.896 170.712 157.368H174.12C174.28 158.472 174.424 159.712 174.552 161.088C174.696 162.448 174.816 163.872 174.912 165.36C175.024 166.832 175.12 168.312 175.2 169.8C175.296 171.288 175.376 172.688 175.44 174H171.792C171.744 172.384 171.68 170.624 171.6 168.72C171.52 166.816 171.4 164.896 171.24 162.96C170.952 163.632 170.632 164.376 170.28 165.192C169.928 166.008 169.576 166.824 169.224 167.64C168.888 168.456 168.56 169.24 168.24 169.992C167.92 170.728 167.648 171.36 167.424 171.888H164.808C164.584 171.36 164.312 170.728 163.992 169.992C163.672 169.24 163.336 168.456 162.984 167.64C162.648 166.824 162.304 166.008 161.952 165.192C161.6 164.376 161.28 163.632 160.992 162.96C160.832 164.896 160.712 166.816 160.632 168.72C160.552 170.624 160.488 172.384 160.44 174H156.792C156.856 172.688 156.928 171.288 157.008 169.8C157.104 168.312 157.2 166.832 157.296 165.36C157.408 163.872 157.528 162.448 157.656 161.088C157.8 159.712 157.952 158.472 158.112 157.368H161.688ZM181.955 165.672C181.955 166.488 182.051 167.224 182.243 167.88C182.451 168.536 182.739 169.104 183.107 169.584C183.491 170.048 183.955 170.408 184.499 170.664C185.043 170.92 185.667 171.048 186.371 171.048C187.059 171.048 187.675 170.92 188.219 170.664C188.779 170.408 189.243 170.048 189.611 169.584C189.995 169.104 190.283 168.536 190.475 167.88C190.683 167.224 190.787 166.488 190.787 165.672C190.787 164.856 190.683 164.12 190.475 163.464C190.283 162.792 189.995 162.224 189.611 161.76C189.243 161.28 188.779 160.912 188.219 160.656C187.675 160.4 187.059 160.272 186.371 160.272C185.667 160.272 185.043 160.408 184.499 160.68C183.955 160.936 183.491 161.304 183.107 161.784C182.739 162.248 182.451 162.816 182.243 163.488C182.051 164.144 181.955 164.872 181.955 165.672ZM194.651 165.672C194.651 167.096 194.435 168.352 194.003 169.44C193.587 170.512 193.011 171.416 192.275 172.152C191.539 172.872 190.659 173.416 189.635 173.784C188.627 174.152 187.539 174.336 186.371 174.336C185.235 174.336 184.163 174.152 183.155 173.784C182.147 173.416 181.267 172.872 180.515 172.152C179.763 171.416 179.171 170.512 178.739 169.44C178.307 168.352 178.091 167.096 178.091 165.672C178.091 164.248 178.315 163 178.763 161.928C179.211 160.84 179.811 159.928 180.563 159.192C181.331 158.456 182.211 157.904 183.203 157.536C184.211 157.168 185.267 156.984 186.371 156.984C187.507 156.984 188.579 157.168 189.587 157.536C190.595 157.904 191.475 158.456 192.227 159.192C192.979 159.928 193.571 160.84 194.003 161.928C194.435 163 194.651 164.248 194.651 165.672ZM203.316 174.216C202.404 174.216 201.492 174.184 200.58 174.12C199.684 174.072 198.748 173.944 197.772 173.736V157.608C198.54 157.464 199.38 157.36 200.292 157.296C201.204 157.216 202.052 157.176 202.836 157.176C203.892 157.176 204.86 157.256 205.74 157.416C206.636 157.56 207.404 157.816 208.044 158.184C208.684 158.552 209.18 159.04 209.532 159.648C209.9 160.24 210.084 160.976 210.084 161.856C210.084 163.184 209.444 164.232 208.164 165C209.22 165.4 209.94 165.944 210.324 166.632C210.708 167.32 210.9 168.096 210.9 168.96C210.9 170.704 210.26 172.016 208.98 172.896C207.716 173.776 205.828 174.216 203.316 174.216ZM201.42 166.752V171.048C201.692 171.08 201.988 171.104 202.308 171.12C202.628 171.136 202.98 171.144 203.364 171.144C204.484 171.144 205.388 170.984 206.076 170.664C206.764 170.344 207.108 169.752 207.108 168.888C207.108 168.12 206.82 167.576 206.244 167.256C205.668 166.92 204.844 166.752 203.772 166.752H201.42ZM201.42 163.896H203.244C204.396 163.896 205.22 163.752 205.716 163.464C206.212 163.16 206.46 162.68 206.46 162.024C206.46 161.352 206.204 160.88 205.692 160.608C205.18 160.336 204.428 160.2 203.436 160.2C203.116 160.2 202.772 160.208 202.404 160.224C202.036 160.224 201.708 160.24 201.42 160.272V163.896ZM213.897 157.368H217.641V174H213.897V157.368ZM232.602 170.784V174H221.49V157.368H225.234V170.784H232.602ZM235.014 174V157.368H246.246V160.512H238.758V163.776H245.406V166.848H238.758V170.856H246.798V174H235.014ZM128.314 186.176C130.794 186.176 132.698 186.616 134.026 187.496C135.354 188.36 136.018 189.784 136.018 191.768C136.018 193.768 135.346 195.216 134.002 196.112C132.658 196.992 130.738 197.432 128.242 197.432H127.066V203H123.322V186.608C124.138 186.448 125.002 186.336 125.914 186.272C126.826 186.208 127.626 186.176 128.314 186.176ZM128.554 189.368C128.282 189.368 128.01 189.376 127.738 189.392C127.482 189.408 127.258 189.424 127.066 189.44V194.24H128.242C129.538 194.24 130.514 194.064 131.17 193.712C131.826 193.36 132.154 192.704 132.154 191.744C132.154 191.28 132.066 190.896 131.89 190.592C131.73 190.288 131.49 190.048 131.17 189.872C130.866 189.68 130.49 189.552 130.042 189.488C129.594 189.408 129.098 189.368 128.554 189.368ZM148.263 203C148.087 202.424 147.887 201.832 147.663 201.224C147.455 200.616 147.247 200.008 147.039 199.4H140.559C140.351 200.008 140.135 200.616 139.911 201.224C139.703 201.832 139.511 202.424 139.335 203H135.447C136.071 201.208 136.663 199.552 137.223 198.032C137.783 196.512 138.327 195.08 138.855 193.736C139.399 192.392 139.927 191.12 140.439 189.92C140.967 188.704 141.511 187.52 142.071 186.368H145.647C146.191 187.52 146.727 188.704 147.255 189.92C147.783 191.12 148.311 192.392 148.839 193.736C149.383 195.08 149.935 196.512 150.495 198.032C151.055 199.552 151.647 201.208 152.271 203H148.263ZM143.775 190.136C143.695 190.376 143.575 190.704 143.415 191.12C143.255 191.536 143.071 192.016 142.863 192.56C142.655 193.104 142.423 193.704 142.167 194.36C141.927 195.016 141.679 195.704 141.423 196.424H146.151C145.895 195.704 145.647 195.016 145.407 194.36C145.167 193.704 144.935 193.104 144.711 192.56C144.503 192.016 144.319 191.536 144.159 191.12C143.999 190.704 143.871 190.376 143.775 190.136ZM156.193 192.848H158.713C159.145 192.848 159.545 192.816 159.913 192.752C160.297 192.688 160.625 192.576 160.897 192.416C161.185 192.256 161.409 192.048 161.569 191.792C161.729 191.536 161.809 191.216 161.809 190.832C161.809 190.288 161.593 189.88 161.161 189.608C160.729 189.336 160.121 189.2 159.337 189.2C158.457 189.2 157.689 189.304 157.033 189.512C156.377 189.704 155.753 189.968 155.161 190.304L153.961 187.352C154.601 186.952 155.369 186.632 156.265 186.392C157.177 186.136 158.209 186.008 159.361 186.008C160.257 186.008 161.089 186.112 161.857 186.32C162.625 186.512 163.289 186.808 163.849 187.208C164.409 187.592 164.841 188.088 165.145 188.696C165.465 189.288 165.625 189.984 165.625 190.784C165.625 191.392 165.457 192 165.121 192.608C164.801 193.2 164.305 193.704 163.633 194.12C164.001 194.312 164.345 194.536 164.665 194.792C165.001 195.048 165.289 195.344 165.529 195.68C165.785 196.016 165.985 196.4 166.129 196.832C166.273 197.248 166.345 197.72 166.345 198.248C166.345 200.024 165.713 201.32 164.449 202.136C163.201 202.936 161.457 203.336 159.217 203.336C158.657 203.336 158.097 203.296 157.537 203.216C156.993 203.136 156.465 203.04 155.953 202.928C155.457 202.8 154.985 202.656 154.537 202.496C154.105 202.336 153.721 202.168 153.385 201.992L154.489 199.064C154.713 199.16 154.985 199.272 155.305 199.4C155.641 199.512 156.009 199.624 156.409 199.736C156.809 199.848 157.225 199.944 157.657 200.024C158.089 200.104 158.521 200.144 158.953 200.144C160.009 200.144 160.857 199.992 161.497 199.688C162.153 199.384 162.481 198.856 162.481 198.104C162.481 197.64 162.377 197.264 162.169 196.976C161.961 196.688 161.673 196.472 161.305 196.328C160.953 196.168 160.529 196.064 160.033 196.016C159.553 195.952 159.025 195.92 158.449 195.92H156.193V192.848ZM174.346 186.176C176.826 186.176 178.73 186.616 180.058 187.496C181.386 188.36 182.05 189.784 182.05 191.768C182.05 193.768 181.378 195.216 180.034 196.112C178.69 196.992 176.77 197.432 174.274 197.432H173.098V203H169.354V186.608C170.17 186.448 171.034 186.336 171.946 186.272C172.858 186.208 173.658 186.176 174.346 186.176ZM174.586 189.368C174.314 189.368 174.042 189.376 173.77 189.392C173.514 189.408 173.29 189.424 173.098 189.44V194.24H174.274C175.57 194.24 176.546 194.064 177.202 193.712C177.858 193.36 178.186 192.704 178.186 191.744C178.186 191.28 178.098 190.896 177.922 190.592C177.762 190.288 177.522 190.048 177.202 189.872C176.898 189.68 176.522 189.552 176.074 189.488C175.626 189.408 175.13 189.368 174.586 189.368ZM194.294 203C194.118 202.424 193.918 201.832 193.694 201.224C193.486 200.616 193.278 200.008 193.07 199.4H186.59C186.382 200.008 186.166 200.616 185.942 201.224C185.734 201.832 185.542 202.424 185.366 203H181.478C182.102 201.208 182.694 199.552 183.254 198.032C183.814 196.512 184.358 195.08 184.886 193.736C185.43 192.392 185.958 191.12 186.47 189.92C186.998 188.704 187.542 187.52 188.102 186.368H191.678C192.222 187.52 192.758 188.704 193.286 189.92C193.814 191.12 194.342 192.392 194.87 193.736C195.414 195.08 195.966 196.512 196.526 198.032C197.086 199.552 197.678 201.208 198.302 203H194.294ZM189.806 190.136C189.726 190.376 189.606 190.704 189.446 191.12C189.286 191.536 189.102 192.016 188.894 192.56C188.686 193.104 188.454 193.704 188.198 194.36C187.958 195.016 187.71 195.704 187.454 196.424H192.182C191.926 195.704 191.678 195.016 191.438 194.36C191.198 193.704 190.966 193.104 190.742 192.56C190.534 192.016 190.35 191.536 190.19 191.12C190.03 190.704 189.902 190.376 189.806 190.136ZM204.031 189.536V192.272H205.255C206.487 192.272 207.583 192.368 208.543 192.56C209.519 192.752 210.335 193.064 210.991 193.496C211.663 193.928 212.175 194.488 212.527 195.176C212.879 195.864 213.055 196.704 213.055 197.696C213.055 199.536 212.383 200.912 211.039 201.824C209.711 202.72 207.807 203.168 205.327 203.168C204.655 203.168 203.887 203.128 203.023 203.048C202.175 202.968 201.319 202.824 200.455 202.616V186.368H211.495V189.536H204.031ZM205.519 199.976C206.015 199.976 206.487 199.944 206.935 199.88C207.383 199.816 207.775 199.704 208.111 199.544C208.463 199.368 208.743 199.136 208.951 198.848C209.159 198.56 209.263 198.184 209.263 197.72C209.263 197.24 209.167 196.848 208.975 196.544C208.783 196.24 208.511 196 208.159 195.824C207.807 195.648 207.375 195.528 206.863 195.464C206.351 195.4 205.775 195.368 205.135 195.368H204.031V199.928C204.207 199.944 204.415 199.96 204.655 199.976C204.911 199.976 205.199 199.976 205.519 199.976ZM219.209 194.672C219.209 195.488 219.305 196.224 219.497 196.88C219.705 197.536 219.993 198.104 220.361 198.584C220.745 199.048 221.209 199.408 221.753 199.664C222.297 199.92 222.921 200.048 223.625 200.048C224.313 200.048 224.929 199.92 225.473 199.664C226.033 199.408 226.497 199.048 226.865 198.584C227.249 198.104 227.537 197.536 227.729 196.88C227.937 196.224 228.041 195.488 228.041 194.672C228.041 193.856 227.937 193.12 227.729 192.464C227.537 191.792 227.249 191.224 226.865 190.76C226.497 190.28 226.033 189.912 225.473 189.656C224.929 189.4 224.313 189.272 223.625 189.272C222.921 189.272 222.297 189.408 221.753 189.68C221.209 189.936 220.745 190.304 220.361 190.784C219.993 191.248 219.705 191.816 219.497 192.488C219.305 193.144 219.209 193.872 219.209 194.672ZM231.905 194.672C231.905 196.096 231.689 197.352 231.257 198.44C230.841 199.512 230.265 200.416 229.529 201.152C228.793 201.872 227.913 202.416 226.889 202.784C225.881 203.152 224.793 203.336 223.625 203.336C222.489 203.336 221.417 203.152 220.409 202.784C219.401 202.416 218.521 201.872 217.769 201.152C217.017 200.416 216.425 199.512 215.993 198.44C215.561 197.352 215.345 196.096 215.345 194.672C215.345 193.248 215.569 192 216.017 190.928C216.465 189.84 217.065 188.928 217.817 188.192C218.585 187.456 219.465 186.904 220.457 186.536C221.465 186.168 222.521 185.984 223.625 185.984C224.761 185.984 225.833 186.168 226.841 186.536C227.849 186.904 228.729 187.456 229.481 188.192C230.233 188.928 230.825 189.84 231.257 190.928C231.689 192 231.905 193.248 231.905 194.672ZM246.799 186.368V189.56H241.783V203H238.039V189.56H233.023V186.368H246.799ZM259.021 203C258.685 202.456 258.285 201.872 257.821 201.248C257.373 200.608 256.877 199.976 256.333 199.352C255.805 198.712 255.253 198.104 254.677 197.528C254.101 196.936 253.525 196.416 252.949 195.968V203H249.205V186.368H252.949V192.656C253.925 191.632 254.901 190.568 255.877 189.464C256.869 188.344 257.789 187.312 258.637 186.368H263.077C261.941 187.712 260.797 189.008 259.645 190.256C258.509 191.504 257.309 192.76 256.045 194.024C257.373 195.128 258.653 196.44 259.885 197.96C261.133 199.48 262.325 201.16 263.461 203H259.021ZM277.357 203C277.181 202.424 276.981 201.832 276.757 201.224C276.549 200.616 276.341 200.008 276.133 199.4H269.653C269.445 200.008 269.229 200.616 269.005 201.224C268.797 201.832 268.605 202.424 268.429 203H264.541C265.165 201.208 265.757 199.552 266.317 198.032C266.877 196.512 267.421 195.08 267.949 193.736C268.493 192.392 269.021 191.12 269.533 189.92C270.061 188.704 270.605 187.52 271.165 186.368H274.741C275.285 187.52 275.821 188.704 276.349 189.92C276.877 191.12 277.405 192.392 277.933 193.736C278.477 195.08 279.029 196.512 279.589 198.032C280.149 199.552 280.741 201.208 281.365 203H277.357ZM272.869 190.136C272.789 190.376 272.669 190.704 272.509 191.12C272.349 191.536 272.165 192.016 271.957 192.56C271.749 193.104 271.517 193.704 271.261 194.36C271.021 195.016 270.773 195.704 270.517 196.424H275.245C274.989 195.704 274.741 195.016 274.501 194.36C274.261 193.704 274.029 193.104 273.805 192.56C273.597 192.016 273.413 191.536 273.253 191.12C273.093 190.704 272.965 190.376 272.869 190.136Z" fill="black"/>
</g>
</svg>
