<svg width="402" height="246" viewBox="0 0 402 246" fill="none" xmlns="http://www.w3.org/2000/svg">
<g opacity="0.92">
<path fill-rule="evenodd" clip-rule="evenodd" d="M184.628 91.4219C182.733 91.4219 180.88 90.8599 179.305 89.807C177.729 88.7541 176.501 87.2575 175.775 85.5065C175.05 83.7555 174.86 81.8288 175.23 79.97C175.6 78.1111 176.512 76.4037 177.853 75.0636C179.193 73.7234 180.9 72.8108 182.759 72.441C184.618 72.0713 186.544 72.261 188.295 72.9863C190.046 73.7116 191.543 74.9398 192.596 76.5157C193.649 78.0915 194.211 79.9442 194.211 81.8394C194.208 84.3799 193.197 86.8154 191.401 88.6117C189.604 90.4081 187.169 91.4187 184.628 91.4219ZM186.57 80.2569L187.298 78.8855C186.976 78.701 186.642 78.5388 186.298 78.4001C185.904 78.2428 185.488 78.1439 185.065 78.1064V77.0846H184.366V78.1064C184.056 78.136 183.751 78.2096 183.461 78.3249C183.191 78.4304 182.944 78.5861 182.733 78.7836C182.527 78.9844 182.362 79.2235 182.247 79.4875C182.122 79.7827 182.059 80.1011 182.065 80.4219C182.061 80.6633 182.1 80.9035 182.182 81.1307C182.26 81.332 182.381 81.514 182.536 81.6647C182.713 81.8331 182.917 81.9716 183.138 82.0749C183.415 82.207 183.703 82.3166 183.997 82.4025L184.483 82.5457V83.888C184.242 83.8568 184.004 83.8015 183.774 83.7229C183.546 83.6452 183.34 83.5627 183.158 83.4802C183.002 83.4094 182.851 83.3283 182.706 83.2375C182.628 83.1889 182.555 83.1328 182.488 83.07L181.759 84.5263C182.14 84.7772 182.553 84.9748 182.988 85.1137C183.436 85.2595 183.899 85.3539 184.369 85.3953V86.5797H185.065V85.4074C185.379 85.3944 185.689 85.343 185.99 85.2545C186.272 85.1747 186.536 85.043 186.769 84.8661C186.997 84.69 187.182 84.4642 187.31 84.2059C187.45 83.9017 187.519 83.5698 187.512 83.2351C187.519 82.944 187.465 82.6546 187.354 82.3855C187.253 82.1544 187.101 81.9488 186.91 81.7836C186.699 81.6082 186.462 81.4681 186.206 81.3686C185.902 81.2477 185.592 81.1447 185.276 81.0603L184.954 80.9802V79.5967C185.145 79.6236 185.332 79.6691 185.514 79.7326C185.699 79.7982 185.869 79.8637 186.019 79.9341C186.148 79.9925 186.273 80.059 186.393 80.1331C186.458 80.1676 186.517 80.2109 186.57 80.2618V80.2569ZM183.769 80.1671C183.766 80.2427 183.78 80.318 183.811 80.3871C183.841 80.4562 183.888 80.5172 183.946 80.5652C184.103 80.688 184.282 80.7795 184.473 80.8346V79.5919C184 79.6331 183.764 79.8346 183.764 80.1792L183.769 80.1671ZM185.73 83.3807C185.733 83.3 185.715 83.2201 185.677 83.1486C185.64 83.0771 185.585 83.0166 185.517 82.9729C185.341 82.8589 185.151 82.7691 184.951 82.7059V83.9195C185.467 83.9017 185.725 83.7237 185.725 83.3855L185.73 83.3807Z" fill="#F83718"/>
<path fill-rule="evenodd" clip-rule="evenodd" d="M215.119 71.3857H202.92C202.689 71.3857 202.467 71.2939 202.304 71.1304C202.14 70.967 202.048 70.7454 202.048 70.5143C202.048 70.2832 202.14 70.0616 202.304 69.8982C202.467 69.7347 202.689 69.6429 202.92 69.6429H215.114C215.345 69.6429 215.567 69.7347 215.73 69.8982C215.893 70.0616 215.985 70.2832 215.985 70.5143C215.985 70.7454 215.893 70.967 215.73 71.1304C215.567 71.2939 215.345 71.3857 215.114 71.3857H215.119Z" fill="#F83718"/>
<path fill-rule="evenodd" clip-rule="evenodd" d="M229.056 75.7375H202.92C202.689 75.7375 202.467 75.6457 202.304 75.4823C202.14 75.3189 202.048 75.0973 202.048 74.8662C202.048 74.6351 202.14 74.4134 202.304 74.25C202.467 74.0866 202.689 73.9948 202.92 73.9948H229.053C229.284 73.9948 229.506 74.0866 229.669 74.25C229.833 74.4134 229.925 74.6351 229.925 74.8662C229.925 75.0973 229.833 75.3189 229.669 75.4823C229.506 75.6457 229.284 75.7375 229.053 75.7375H229.056Z" fill="#F83718"/>
<path fill-rule="evenodd" clip-rule="evenodd" d="M215.119 80.9678H202.92C202.689 80.9678 202.467 80.876 202.304 80.7126C202.14 80.5492 202.048 80.3276 202.048 80.0965C202.048 79.8654 202.14 79.6437 202.304 79.4803C202.467 79.3169 202.689 79.2251 202.92 79.2251H215.114C215.345 79.2251 215.567 79.3169 215.73 79.4803C215.893 79.6437 215.985 79.8654 215.985 80.0965C215.985 80.3276 215.893 80.5492 215.73 80.7126C215.567 80.876 215.345 80.9678 215.114 80.9678H215.119Z" fill="#F83718"/>
<path fill-rule="evenodd" clip-rule="evenodd" d="M229.056 85.3249H202.92C202.689 85.3249 202.467 85.2331 202.304 85.0697C202.14 84.9062 202.048 84.6846 202.048 84.4535C202.048 84.2224 202.14 84.0008 202.304 83.8374C202.467 83.674 202.689 83.5822 202.92 83.5822H229.053C229.284 83.5822 229.506 83.674 229.669 83.8374C229.833 84.0008 229.925 84.2224 229.925 84.4535C229.925 84.6846 229.833 84.9062 229.669 85.0697C229.506 85.2331 229.284 85.3249 229.053 85.3249H229.056Z" fill="#F83718"/>
<path fill-rule="evenodd" clip-rule="evenodd" d="M215.119 90.5433H202.92C202.689 90.5433 202.467 90.4515 202.304 90.2881C202.14 90.1247 202.048 89.9031 202.048 89.672C202.048 89.4409 202.14 89.2192 202.304 89.0558C202.467 88.8924 202.689 88.8006 202.92 88.8006H215.114C215.345 88.8006 215.567 88.8924 215.73 89.0558C215.893 89.2192 215.985 89.4409 215.985 89.672C215.985 89.9031 215.893 90.1247 215.73 90.2881C215.567 90.4515 215.345 90.5433 215.114 90.5433H215.119Z" fill="#F83718"/>
<path fill-rule="evenodd" clip-rule="evenodd" d="M229.056 94.9125H202.92C202.802 94.9187 202.684 94.9008 202.573 94.8599C202.462 94.819 202.36 94.7559 202.274 94.6745C202.188 94.5931 202.12 94.4951 202.073 94.3864C202.027 94.2777 202.003 94.1606 202.003 94.0423C202.003 93.924 202.027 93.807 202.073 93.6983C202.12 93.5896 202.188 93.4915 202.274 93.4101C202.36 93.3287 202.462 93.2656 202.573 93.2247C202.684 93.1838 202.802 93.1659 202.92 93.1722H229.053C229.172 93.1659 229.29 93.1838 229.401 93.2247C229.512 93.2656 229.613 93.3287 229.699 93.4101C229.785 93.4915 229.853 93.5896 229.9 93.6983C229.947 93.807 229.971 93.924 229.971 94.0423C229.971 94.1606 229.947 94.2777 229.9 94.3864C229.853 94.4951 229.785 94.5931 229.699 94.6745C229.613 94.7559 229.512 94.819 229.401 94.8599C229.29 94.9008 229.172 94.9187 229.053 94.9125H229.056Z" fill="#F83718"/>
<path fill-rule="evenodd" clip-rule="evenodd" d="M197.184 128.009H188.985C188.841 128.009 188.699 127.973 188.572 127.904C188.445 127.835 188.337 127.736 188.257 127.616C188.177 127.496 188.129 127.358 188.116 127.214C188.103 127.07 188.127 126.925 188.184 126.793L193.41 114.599C193.478 114.443 193.59 114.31 193.732 114.216C193.874 114.122 194.041 114.072 194.211 114.072H199.335C199.462 114.072 199.588 114.1 199.703 114.154C199.819 114.207 199.921 114.285 200.003 114.383C200.085 114.48 200.144 114.594 200.177 114.717C200.21 114.84 200.216 114.969 200.194 115.094L198.041 127.288C198.007 127.491 197.903 127.676 197.746 127.809C197.589 127.942 197.39 128.016 197.184 128.016V128.009ZM190.298 126.266H196.444L198.289 115.815H194.779L190.298 126.266Z" fill="#F83718"/>
<path fill-rule="evenodd" clip-rule="evenodd" d="M216.859 128.009H208.663C208.456 128.009 208.257 127.936 208.099 127.803C207.942 127.669 207.837 127.485 207.803 127.281L205.653 115.087C205.63 114.962 205.636 114.833 205.668 114.71C205.701 114.587 205.761 114.473 205.842 114.376C205.924 114.278 206.026 114.2 206.141 114.146C206.257 114.093 206.382 114.065 206.51 114.065H211.633C211.804 114.066 211.97 114.116 212.112 114.209C212.254 114.303 212.366 114.436 212.434 114.592L217.66 126.786C217.717 126.919 217.739 127.063 217.727 127.206C217.714 127.35 217.665 127.488 217.586 127.608C217.507 127.728 217.399 127.827 217.272 127.895C217.145 127.964 217.003 128 216.859 128V128.009ZM209.391 126.267H215.541L211.061 115.815H207.548L209.391 126.267Z" fill="#F83718"/>
<path fill-rule="evenodd" clip-rule="evenodd" d="M208.662 128.009H197.184C197.057 128.01 196.931 127.982 196.816 127.928C196.701 127.875 196.598 127.796 196.517 127.699C196.435 127.601 196.376 127.487 196.343 127.364C196.31 127.241 196.304 127.113 196.325 126.988L198.478 114.791C198.512 114.588 198.616 114.403 198.773 114.27C198.93 114.137 199.129 114.063 199.335 114.063H206.509C206.715 114.063 206.914 114.136 207.071 114.27C207.228 114.403 207.333 114.588 207.366 114.791L209.519 126.985C209.541 127.11 209.536 127.239 209.503 127.362C209.471 127.485 209.411 127.599 209.33 127.697C209.248 127.795 209.146 127.873 209.031 127.927C208.915 127.981 208.79 128.009 208.662 128.009ZM198.225 126.267H207.628L205.784 115.815H200.07L198.225 126.267Z" fill="#F83718"/>
<path fill-rule="evenodd" clip-rule="evenodd" d="M237.825 115.812H168.02C166.418 115.811 164.883 115.173 163.751 114.041C162.619 112.908 161.982 111.373 161.981 109.771V104.487C161.981 104.373 162.003 104.26 162.047 104.154C162.091 104.049 162.155 103.953 162.236 103.872C162.317 103.791 162.413 103.727 162.519 103.684C162.624 103.64 162.738 103.618 162.852 103.618H242.995C243.11 103.618 243.223 103.64 243.328 103.684C243.434 103.727 243.53 103.791 243.611 103.872C243.692 103.953 243.756 104.049 243.8 104.154C243.844 104.26 243.867 104.373 243.867 104.487V109.771C243.865 111.373 243.228 112.908 242.095 114.041C240.962 115.173 239.427 115.811 237.825 115.812ZM163.721 105.349V109.761C163.722 110.901 164.176 111.994 164.981 112.8C165.787 113.605 166.88 114.059 168.02 114.06H237.825C238.965 114.059 240.058 113.605 240.863 112.8C241.669 111.994 242.123 110.901 242.124 109.761V105.349H163.721Z" fill="#F83718"/>
<path fill-rule="evenodd" clip-rule="evenodd" d="M175.917 126.266C175.056 126.266 174.213 126.011 173.497 125.532C172.78 125.053 172.222 124.373 171.892 123.577C171.562 122.781 171.476 121.905 171.644 121.06C171.812 120.214 172.227 119.438 172.837 118.829C173.446 118.22 174.222 117.805 175.067 117.637C175.912 117.468 176.788 117.555 177.585 117.884C178.381 118.214 179.061 118.773 179.54 119.489C180.019 120.206 180.274 121.048 180.274 121.91C180.271 123.064 179.811 124.17 178.995 124.987C178.178 125.803 177.072 126.263 175.917 126.266ZM175.917 119.298C175.4 119.298 174.895 119.451 174.465 119.739C174.035 120.026 173.7 120.434 173.502 120.912C173.304 121.389 173.253 121.915 173.353 122.422C173.454 122.929 173.703 123.395 174.069 123.76C174.434 124.126 174.9 124.375 175.407 124.476C175.914 124.577 176.44 124.525 176.918 124.327C177.395 124.129 177.804 123.794 178.091 123.364C178.378 122.934 178.531 122.429 178.531 121.912C178.531 121.219 178.255 120.554 177.765 120.064C177.275 119.574 176.61 119.299 175.917 119.298Z" fill="#F83718"/>
<path fill-rule="evenodd" clip-rule="evenodd" d="M242.993 105.349H162.852C162.738 105.349 162.624 105.327 162.518 105.283C162.412 105.24 162.316 105.176 162.235 105.095C162.154 105.014 162.09 104.917 162.046 104.812C162.003 104.706 161.98 104.592 161.981 104.478V67.3783C161.983 64.9767 162.938 62.6741 164.637 60.9759C166.335 59.2778 168.637 58.3226 171.039 58.32H234.803C237.206 58.3219 239.509 59.2768 241.207 60.9751C242.906 62.6734 243.862 64.9762 243.864 67.3783V104.487C243.864 104.602 243.842 104.715 243.799 104.821C243.755 104.927 243.691 105.023 243.61 105.104C243.529 105.185 243.433 105.249 243.327 105.293C243.221 105.337 243.107 105.359 242.993 105.359V105.349ZM163.721 103.609H242.119V67.3783C242.117 65.438 241.346 63.5778 239.974 62.2058C238.602 60.8338 236.741 60.0622 234.801 60.0603H171.039C169.099 60.0622 167.238 60.8338 165.867 62.2058C164.495 63.5778 163.723 65.438 163.721 67.3783V103.616V103.609Z" fill="#F83718"/>
<path fill-rule="evenodd" clip-rule="evenodd" d="M234.544 55.6065C233.616 55.6065 232.708 55.3313 231.937 54.8158C231.165 54.3002 230.564 53.5675 230.209 52.7102C229.854 51.8529 229.761 50.9095 229.942 49.9994C230.123 49.0893 230.57 48.2533 231.226 47.5971C231.882 46.941 232.718 46.4941 233.628 46.3131C234.538 46.1321 235.482 46.225 236.339 46.5801C237.196 46.9352 237.929 47.5366 238.445 48.3081C238.96 49.0797 239.235 49.9868 239.235 50.9147C239.234 52.1586 238.739 53.3513 237.86 54.2309C236.98 55.1105 235.787 55.6052 234.544 55.6065ZM234.544 47.9657C233.96 47.9652 233.389 48.138 232.903 48.4621C232.417 48.7862 232.038 49.2471 231.815 49.7865C231.591 50.3259 231.532 50.9196 231.646 51.4923C231.76 52.0651 232.041 52.5912 232.454 53.0041C232.867 53.417 233.393 53.6982 233.966 53.812C234.539 53.9258 235.132 53.8671 235.672 53.6435C236.211 53.4198 236.672 53.0411 236.996 52.5554C237.32 52.0696 237.493 51.4987 237.493 50.9147C237.492 50.1328 237.181 49.3831 236.628 48.8301C236.075 48.2772 235.325 47.9663 234.544 47.9657Z" fill="#F83718"/>
<circle cx="185" cy="81" r="6" fill="#F83718"/>
<path d="M125.314 157.176C127.794 157.176 129.698 157.616 131.026 158.496C132.354 159.36 133.018 160.784 133.018 162.768C133.018 164.768 132.346 166.216 131.002 167.112C129.658 167.992 127.738 168.432 125.242 168.432H124.066V174H120.322V157.608C121.138 157.448 122.002 157.336 122.914 157.272C123.826 157.208 124.626 157.176 125.314 157.176ZM125.554 160.368C125.282 160.368 125.01 160.376 124.738 160.392C124.482 160.408 124.258 160.424 124.066 160.44V165.24H125.242C126.538 165.24 127.514 165.064 128.17 164.712C128.826 164.36 129.154 163.704 129.154 162.744C129.154 162.28 129.066 161.896 128.89 161.592C128.73 161.288 128.49 161.048 128.17 160.872C127.866 160.68 127.49 160.552 127.042 160.488C126.594 160.408 126.098 160.368 125.554 160.368ZM145.263 174C145.087 173.424 144.887 172.832 144.663 172.224C144.455 171.616 144.247 171.008 144.039 170.4H137.559C137.351 171.008 137.135 171.616 136.911 172.224C136.703 172.832 136.511 173.424 136.335 174H132.447C133.071 172.208 133.663 170.552 134.223 169.032C134.783 167.512 135.327 166.08 135.855 164.736C136.399 163.392 136.927 162.12 137.439 160.92C137.967 159.704 138.511 158.52 139.071 157.368H142.647C143.191 158.52 143.727 159.704 144.255 160.92C144.783 162.12 145.311 163.392 145.839 164.736C146.383 166.08 146.935 167.512 147.495 169.032C148.055 170.552 148.647 172.208 149.271 174H145.263ZM140.775 161.136C140.695 161.376 140.575 161.704 140.415 162.12C140.255 162.536 140.071 163.016 139.863 163.56C139.655 164.104 139.423 164.704 139.167 165.36C138.927 166.016 138.679 166.704 138.423 167.424H143.151C142.895 166.704 142.647 166.016 142.407 165.36C142.167 164.704 141.935 164.104 141.711 163.56C141.503 163.016 141.319 162.536 141.159 162.12C140.999 161.704 140.871 161.376 140.775 161.136ZM153.193 163.848H155.713C156.145 163.848 156.545 163.816 156.913 163.752C157.297 163.688 157.625 163.576 157.897 163.416C158.185 163.256 158.409 163.048 158.569 162.792C158.729 162.536 158.809 162.216 158.809 161.832C158.809 161.288 158.593 160.88 158.161 160.608C157.729 160.336 157.121 160.2 156.337 160.2C155.457 160.2 154.689 160.304 154.033 160.512C153.377 160.704 152.753 160.968 152.161 161.304L150.961 158.352C151.601 157.952 152.369 157.632 153.265 157.392C154.177 157.136 155.209 157.008 156.361 157.008C157.257 157.008 158.089 157.112 158.857 157.32C159.625 157.512 160.289 157.808 160.849 158.208C161.409 158.592 161.841 159.088 162.145 159.696C162.465 160.288 162.625 160.984 162.625 161.784C162.625 162.392 162.457 163 162.121 163.608C161.801 164.2 161.305 164.704 160.633 165.12C161.001 165.312 161.345 165.536 161.665 165.792C162.001 166.048 162.289 166.344 162.529 166.68C162.785 167.016 162.985 167.4 163.129 167.832C163.273 168.248 163.345 168.72 163.345 169.248C163.345 171.024 162.713 172.32 161.449 173.136C160.201 173.936 158.457 174.336 156.217 174.336C155.657 174.336 155.097 174.296 154.537 174.216C153.993 174.136 153.465 174.04 152.953 173.928C152.457 173.8 151.985 173.656 151.537 173.496C151.105 173.336 150.721 173.168 150.385 172.992L151.489 170.064C151.713 170.16 151.985 170.272 152.305 170.4C152.641 170.512 153.009 170.624 153.409 170.736C153.809 170.848 154.225 170.944 154.657 171.024C155.089 171.104 155.521 171.144 155.953 171.144C157.009 171.144 157.857 170.992 158.497 170.688C159.153 170.384 159.481 169.856 159.481 169.104C159.481 168.64 159.377 168.264 159.169 167.976C158.961 167.688 158.673 167.472 158.305 167.328C157.953 167.168 157.529 167.064 157.033 167.016C156.553 166.952 156.025 166.92 155.449 166.92H153.193V163.848ZM171.346 157.176C173.826 157.176 175.73 157.616 177.058 158.496C178.386 159.36 179.05 160.784 179.05 162.768C179.05 164.768 178.378 166.216 177.034 167.112C175.69 167.992 173.77 168.432 171.274 168.432H170.098V174H166.354V157.608C167.17 157.448 168.034 157.336 168.946 157.272C169.858 157.208 170.658 157.176 171.346 157.176ZM171.586 160.368C171.314 160.368 171.042 160.376 170.77 160.392C170.514 160.408 170.29 160.424 170.098 160.44V165.24H171.274C172.57 165.24 173.546 165.064 174.202 164.712C174.858 164.36 175.186 163.704 175.186 162.744C175.186 162.28 175.098 161.896 174.922 161.592C174.762 161.288 174.522 161.048 174.202 160.872C173.898 160.68 173.522 160.552 173.074 160.488C172.626 160.408 172.13 160.368 171.586 160.368ZM191.294 174C191.118 173.424 190.918 172.832 190.694 172.224C190.486 171.616 190.278 171.008 190.07 170.4H183.59C183.382 171.008 183.166 171.616 182.942 172.224C182.734 172.832 182.542 173.424 182.366 174H178.478C179.102 172.208 179.694 170.552 180.254 169.032C180.814 167.512 181.358 166.08 181.886 164.736C182.43 163.392 182.958 162.12 183.47 160.92C183.998 159.704 184.542 158.52 185.102 157.368H188.678C189.222 158.52 189.758 159.704 190.286 160.92C190.814 162.12 191.342 163.392 191.87 164.736C192.414 166.08 192.966 167.512 193.526 169.032C194.086 170.552 194.678 172.208 195.302 174H191.294ZM186.806 161.136C186.726 161.376 186.606 161.704 186.446 162.12C186.286 162.536 186.102 163.016 185.894 163.56C185.686 164.104 185.454 164.704 185.198 165.36C184.958 166.016 184.71 166.704 184.454 167.424H189.182C188.926 166.704 188.678 166.016 188.438 165.36C188.198 164.704 187.966 164.104 187.742 163.56C187.534 163.016 187.35 162.536 187.19 162.12C187.03 161.704 186.902 161.376 186.806 161.136ZM201.031 160.536V163.272H202.255C203.487 163.272 204.583 163.368 205.543 163.56C206.519 163.752 207.335 164.064 207.991 164.496C208.663 164.928 209.175 165.488 209.527 166.176C209.879 166.864 210.055 167.704 210.055 168.696C210.055 170.536 209.383 171.912 208.039 172.824C206.711 173.72 204.807 174.168 202.327 174.168C201.655 174.168 200.887 174.128 200.023 174.048C199.175 173.968 198.319 173.824 197.455 173.616V157.368H208.495V160.536H201.031ZM202.519 170.976C203.015 170.976 203.487 170.944 203.935 170.88C204.383 170.816 204.775 170.704 205.111 170.544C205.463 170.368 205.743 170.136 205.951 169.848C206.159 169.56 206.263 169.184 206.263 168.72C206.263 168.24 206.167 167.848 205.975 167.544C205.783 167.24 205.511 167 205.159 166.824C204.807 166.648 204.375 166.528 203.863 166.464C203.351 166.4 202.775 166.368 202.135 166.368H201.031V170.928C201.207 170.944 201.415 170.96 201.655 170.976C201.911 170.976 202.199 170.976 202.519 170.976ZM216.209 165.672C216.209 166.488 216.305 167.224 216.497 167.88C216.705 168.536 216.993 169.104 217.361 169.584C217.745 170.048 218.209 170.408 218.753 170.664C219.297 170.92 219.921 171.048 220.625 171.048C221.313 171.048 221.929 170.92 222.473 170.664C223.033 170.408 223.497 170.048 223.865 169.584C224.249 169.104 224.537 168.536 224.729 167.88C224.937 167.224 225.041 166.488 225.041 165.672C225.041 164.856 224.937 164.12 224.729 163.464C224.537 162.792 224.249 162.224 223.865 161.76C223.497 161.28 223.033 160.912 222.473 160.656C221.929 160.4 221.313 160.272 220.625 160.272C219.921 160.272 219.297 160.408 218.753 160.68C218.209 160.936 217.745 161.304 217.361 161.784C216.993 162.248 216.705 162.816 216.497 163.488C216.305 164.144 216.209 164.872 216.209 165.672ZM228.905 165.672C228.905 167.096 228.689 168.352 228.257 169.44C227.841 170.512 227.265 171.416 226.529 172.152C225.793 172.872 224.913 173.416 223.889 173.784C222.881 174.152 221.793 174.336 220.625 174.336C219.489 174.336 218.417 174.152 217.409 173.784C216.401 173.416 215.521 172.872 214.769 172.152C214.017 171.416 213.425 170.512 212.993 169.44C212.561 168.352 212.345 167.096 212.345 165.672C212.345 164.248 212.569 163 213.017 161.928C213.465 160.84 214.065 159.928 214.817 159.192C215.585 158.456 216.465 157.904 217.457 157.536C218.465 157.168 219.521 156.984 220.625 156.984C221.761 156.984 222.833 157.168 223.841 157.536C224.849 157.904 225.729 158.456 226.481 159.192C227.233 159.928 227.825 160.84 228.257 161.928C228.689 163 228.905 164.248 228.905 165.672ZM243.799 157.368V160.56H238.783V174H235.039V160.56H230.023V157.368H243.799ZM256.021 174C255.685 173.456 255.285 172.872 254.821 172.248C254.373 171.608 253.877 170.976 253.333 170.352C252.805 169.712 252.253 169.104 251.677 168.528C251.101 167.936 250.525 167.416 249.949 166.968V174H246.205V157.368H249.949V163.656C250.925 162.632 251.901 161.568 252.877 160.464C253.869 159.344 254.789 158.312 255.637 157.368H260.077C258.941 158.712 257.797 160.008 256.645 161.256C255.509 162.504 254.309 163.76 253.045 165.024C254.373 166.128 255.653 167.44 256.885 168.96C258.133 170.48 259.325 172.16 260.461 174H256.021ZM262.611 174V157.368H266.331V167.184C266.907 166.32 267.523 165.424 268.179 164.496C268.835 163.552 269.491 162.648 270.147 161.784C270.819 160.904 271.475 160.08 272.115 159.312C272.755 158.544 273.339 157.896 273.867 157.368H276.915V174H273.219V163.104C271.811 164.752 270.483 166.504 269.235 168.36C267.987 170.216 266.827 172.096 265.755 174H262.611ZM110.48 199.832H112.88C113.472 198.808 113.936 197.792 114.272 196.784C114.608 195.776 114.856 194.752 115.016 193.712C115.192 192.672 115.296 191.6 115.328 190.496C115.376 189.392 115.4 188.232 115.4 187.016V186.368H126.392V199.832H129.248V207.44H125.648V203H114.08V207.44H110.48V199.832ZM118.928 189.536C118.896 190.4 118.84 191.288 118.76 192.2C118.68 193.112 118.56 194.016 118.4 194.912C118.24 195.792 118.024 196.656 117.752 197.504C117.496 198.336 117.168 199.112 116.768 199.832H122.744V189.536H118.928ZM139.278 189.536C139.23 190.608 139.166 191.688 139.086 192.776C139.022 193.848 138.894 194.888 138.702 195.896C138.526 196.904 138.262 197.848 137.91 198.728C137.574 199.608 137.102 200.384 136.494 201.056C135.902 201.728 135.158 202.264 134.262 202.664C133.366 203.064 132.27 203.288 130.974 203.336L130.566 200.072C131.718 199.944 132.606 199.656 133.23 199.208C133.854 198.744 134.326 198.04 134.646 197.096C135.046 195.928 135.326 194.424 135.486 192.584C135.662 190.728 135.75 188.656 135.75 186.368H147.102V203H143.358V189.536H139.278ZM158.431 189.416C157.951 189.416 157.487 189.456 157.039 189.536C156.607 189.6 156.223 189.72 155.887 189.896C155.551 190.056 155.279 190.288 155.071 190.592C154.863 190.88 154.759 191.248 154.759 191.696C154.759 192.544 155.055 193.128 155.647 193.448C156.255 193.768 157.151 193.928 158.335 193.928H159.895V189.44C159.703 189.424 159.495 189.416 159.271 189.416C159.047 189.416 158.767 189.416 158.431 189.416ZM158.599 186.2C159.271 186.2 160.055 186.24 160.951 186.32C161.863 186.4 162.759 186.536 163.639 186.728V203H159.895V197.024H158.743C158.535 197.024 158.335 197.024 158.143 197.024C157.951 197.024 157.719 197.008 157.447 196.976C156.919 197.696 156.335 198.6 155.695 199.688C155.071 200.76 154.487 201.864 153.943 203H149.983C150.271 202.344 150.575 201.696 150.895 201.056C151.231 200.416 151.567 199.808 151.903 199.232C152.239 198.656 152.567 198.128 152.887 197.648C153.207 197.152 153.503 196.72 153.775 196.352C153.423 196.192 153.071 195.984 152.719 195.728C152.383 195.456 152.079 195.136 151.807 194.768C151.535 194.4 151.311 193.968 151.135 193.472C150.975 192.96 150.895 192.376 150.895 191.72C150.895 190.808 151.071 190.008 151.423 189.32C151.791 188.632 152.303 188.056 152.959 187.592C153.631 187.128 154.439 186.784 155.383 186.56C156.343 186.32 157.415 186.2 158.599 186.2ZM177.792 200.144C178.32 200.144 178.752 200.104 179.088 200.024C179.44 199.928 179.72 199.808 179.928 199.664C180.136 199.504 180.28 199.32 180.36 199.112C180.44 198.904 180.48 198.672 180.48 198.416C180.48 197.872 180.224 197.424 179.712 197.072C179.2 196.704 178.32 196.312 177.072 195.896C176.528 195.704 175.984 195.488 175.44 195.248C174.896 194.992 174.408 194.68 173.976 194.312C173.544 193.928 173.192 193.472 172.92 192.944C172.648 192.4 172.512 191.744 172.512 190.976C172.512 190.208 172.656 189.52 172.944 188.912C173.232 188.288 173.64 187.76 174.168 187.328C174.696 186.896 175.336 186.568 176.088 186.344C176.84 186.104 177.688 185.984 178.632 185.984C179.752 185.984 180.72 186.104 181.536 186.344C182.352 186.584 183.024 186.848 183.552 187.136L182.472 190.088C182.008 189.848 181.488 189.64 180.912 189.464C180.352 189.272 179.672 189.176 178.872 189.176C177.976 189.176 177.328 189.304 176.928 189.56C176.544 189.8 176.352 190.176 176.352 190.688C176.352 190.992 176.424 191.248 176.568 191.456C176.712 191.664 176.912 191.856 177.168 192.032C177.44 192.192 177.744 192.344 178.08 192.488C178.432 192.616 178.816 192.752 179.232 192.896C180.096 193.216 180.848 193.536 181.488 193.856C182.128 194.16 182.656 194.52 183.072 194.936C183.504 195.352 183.824 195.84 184.032 196.4C184.24 196.96 184.344 197.64 184.344 198.44C184.344 199.992 183.8 201.2 182.712 202.064C181.624 202.912 179.984 203.336 177.792 203.336C177.056 203.336 176.392 203.288 175.8 203.192C175.208 203.112 174.68 203.008 174.216 202.88C173.768 202.752 173.376 202.616 173.04 202.472C172.72 202.328 172.448 202.192 172.224 202.064L173.28 199.088C173.776 199.36 174.384 199.608 175.104 199.832C175.84 200.04 176.736 200.144 177.792 200.144ZM191.641 186.368C191.929 186.896 192.257 187.552 192.625 188.336C193.009 189.104 193.401 189.944 193.801 190.856C194.217 191.752 194.625 192.672 195.025 193.616C195.425 194.56 195.801 195.448 196.153 196.28C196.505 195.448 196.881 194.56 197.281 193.616C197.681 192.672 198.081 191.752 198.481 190.856C198.897 189.944 199.289 189.104 199.657 188.336C200.041 187.552 200.377 186.896 200.665 186.368H204.073C204.233 187.472 204.377 188.712 204.505 190.088C204.649 191.448 204.769 192.872 204.865 194.36C204.977 195.832 205.073 197.312 205.153 198.8C205.249 200.288 205.329 201.688 205.393 203H201.745C201.697 201.384 201.633 199.624 201.553 197.72C201.473 195.816 201.353 193.896 201.193 191.96C200.905 192.632 200.585 193.376 200.233 194.192C199.881 195.008 199.529 195.824 199.177 196.64C198.841 197.456 198.513 198.24 198.193 198.992C197.873 199.728 197.601 200.36 197.377 200.888H194.761C194.537 200.36 194.265 199.728 193.945 198.992C193.625 198.24 193.289 197.456 192.937 196.64C192.601 195.824 192.257 195.008 191.905 194.192C191.553 193.376 191.233 192.632 190.945 191.96C190.785 193.896 190.665 195.816 190.585 197.72C190.505 199.624 190.441 201.384 190.393 203H186.745C186.809 201.688 186.881 200.288 186.961 198.8C187.057 197.312 187.153 195.832 187.249 194.36C187.361 192.872 187.481 191.448 187.609 190.088C187.753 188.712 187.905 187.472 188.065 186.368H191.641ZM219.9 203C219.724 202.424 219.524 201.832 219.3 201.224C219.092 200.616 218.884 200.008 218.676 199.4H212.196C211.988 200.008 211.772 200.616 211.548 201.224C211.34 201.832 211.148 202.424 210.972 203H207.084C207.708 201.208 208.3 199.552 208.86 198.032C209.42 196.512 209.964 195.08 210.492 193.736C211.036 192.392 211.564 191.12 212.076 189.92C212.604 188.704 213.148 187.52 213.708 186.368H217.284C217.828 187.52 218.364 188.704 218.892 189.92C219.42 191.12 219.948 192.392 220.476 193.736C221.02 195.08 221.572 196.512 222.132 198.032C222.692 199.552 223.284 201.208 223.908 203H219.9ZM215.412 190.136C215.332 190.376 215.212 190.704 215.052 191.12C214.892 191.536 214.708 192.016 214.5 192.56C214.292 193.104 214.06 193.704 213.804 194.36C213.564 195.016 213.316 195.704 213.06 196.424H217.788C217.532 195.704 217.284 195.016 217.044 194.36C216.804 193.704 216.572 193.104 216.348 192.56C216.14 192.016 215.956 191.536 215.796 191.12C215.636 190.704 215.508 190.376 215.412 190.136ZM230.933 186.176C233.429 186.176 235.341 186.624 236.669 187.52C237.997 188.4 238.661 189.776 238.661 191.648C238.661 192.816 238.389 193.768 237.845 194.504C237.317 195.224 236.549 195.792 235.541 196.208C235.877 196.624 236.229 197.104 236.597 197.648C236.965 198.176 237.325 198.736 237.677 199.328C238.045 199.904 238.397 200.512 238.733 201.152C239.069 201.776 239.381 202.392 239.669 203H235.469C235.165 202.456 234.853 201.904 234.533 201.344C234.229 200.784 233.909 200.24 233.573 199.712C233.253 199.184 232.933 198.688 232.613 198.224C232.293 197.744 231.973 197.312 231.653 196.928H229.805V203H226.061V186.608C226.877 186.448 227.717 186.336 228.581 186.272C229.461 186.208 230.245 186.176 230.933 186.176ZM231.149 189.368C230.877 189.368 230.629 189.376 230.405 189.392C230.197 189.408 229.997 189.424 229.805 189.44V193.952H230.861C232.269 193.952 233.277 193.776 233.885 193.424C234.493 193.072 234.797 192.472 234.797 191.624C234.797 190.808 234.485 190.232 233.861 189.896C233.253 189.544 232.349 189.368 231.149 189.368ZM254.17 186.368V189.56H249.154V203H245.41V189.56H240.394V186.368H254.17ZM253.944 194.216H260.904V197.456H253.944V194.216ZM274.444 186.368V189.56H269.428V203H265.684V189.56H260.668V186.368H274.444ZM282.544 203C281.888 201.608 281.24 200.16 280.6 198.656C279.96 197.152 279.352 195.664 278.776 194.192C278.2 192.72 277.664 191.312 277.168 189.968C276.688 188.624 276.272 187.424 275.92 186.368H280.048C280.368 187.328 280.712 188.368 281.08 189.488C281.464 190.592 281.848 191.696 282.232 192.8C282.632 193.904 283.016 194.96 283.384 195.968C283.752 196.976 284.096 197.848 284.416 198.584C284.72 197.848 285.056 196.976 285.424 195.968C285.808 194.96 286.192 193.904 286.576 192.8C286.976 191.696 287.36 190.592 287.728 189.488C288.112 188.368 288.464 187.328 288.784 186.368H292.768C292.4 187.424 291.976 188.624 291.496 189.968C291.016 191.312 290.488 192.72 289.912 194.192C289.336 195.664 288.728 197.152 288.088 198.656C287.448 200.16 286.8 201.608 286.144 203H282.544Z" fill="black"/>
</g>
</svg>
