<svg width="402" height="246" viewBox="0 0 402 246" fill="none" xmlns="http://www.w3.org/2000/svg">
<path d="M205.667 87.6276C207.368 85.9268 207.368 83.1692 205.667 81.4683C203.967 79.7675 201.209 79.7675 199.508 81.4683C197.807 83.1692 197.807 85.9268 199.508 87.6276C201.209 89.3284 203.967 89.3285 205.667 87.6276Z" fill="#F83718"/>
<path fill-rule="evenodd" clip-rule="evenodd" d="M210.104 121.822H195.068C194.82 121.819 194.583 121.719 194.407 121.544C194.232 121.368 194.132 121.131 194.129 120.883V112.186C192.365 111.644 190.658 110.932 189.031 110.062L182.871 116.221C182.784 116.308 182.68 116.377 182.566 116.424C182.452 116.472 182.33 116.496 182.207 116.496C182.084 116.496 181.962 116.472 181.848 116.424C181.734 116.377 181.63 116.308 181.543 116.221L170.911 105.588C170.738 105.41 170.641 105.172 170.641 104.924C170.641 104.676 170.738 104.438 170.911 104.261L177.06 98.1071C176.188 96.4782 175.476 94.7687 174.933 93.0026H166.244C165.992 93.0026 165.75 92.9023 165.571 92.7239C165.393 92.5455 165.292 92.3035 165.292 92.0511V77.0134C165.296 76.7631 165.397 76.5241 165.575 76.3483C165.753 76.1724 165.994 76.0738 166.244 76.0738H174.943C175.486 74.3106 176.197 72.6036 177.067 70.9764L170.906 64.8157C170.819 64.7285 170.75 64.625 170.703 64.5111C170.656 64.3973 170.632 64.2752 170.633 64.152C170.634 63.9036 170.732 63.6655 170.906 63.4884L181.539 52.8559C181.716 52.683 181.954 52.5862 182.202 52.5862C182.45 52.5862 182.688 52.683 182.866 52.8559L189.027 59.0166C190.654 58.1463 192.361 57.4342 194.124 56.8901V48.1938C194.124 47.9435 194.223 47.7032 194.398 47.5251C194.574 47.347 194.813 47.2454 195.064 47.2423H210.101C210.352 47.2454 210.591 47.347 210.766 47.5251C210.942 47.7032 211.041 47.9435 211.041 48.1938V56.8806C212.807 57.4243 214.516 58.1372 216.145 59.0094L222.299 52.8559C222.386 52.7683 222.489 52.6988 222.603 52.6513C222.717 52.6039 222.839 52.5794 222.963 52.5794C223.086 52.5794 223.208 52.6039 223.322 52.6513C223.436 52.6988 223.539 52.7683 223.626 52.8559L234.259 63.4861C234.346 63.5733 234.415 63.6769 234.463 63.791C234.51 63.9051 234.534 64.0274 234.534 64.1509C234.534 64.2744 234.51 64.3967 234.463 64.5107C234.415 64.6248 234.346 64.7284 234.259 64.8157L228.098 70.974C228.968 72.6014 229.68 74.3083 230.225 76.0714H238.921C239.045 76.0714 239.168 76.0961 239.283 76.1441C239.398 76.1921 239.501 76.2624 239.589 76.3509C239.676 76.4395 239.745 76.5445 239.791 76.6599C239.837 76.7752 239.86 76.8986 239.858 77.0229V92.0654C239.858 92.1887 239.834 92.3108 239.787 92.4248C239.74 92.5387 239.671 92.6424 239.584 92.7296C239.497 92.8169 239.394 92.8862 239.28 92.9334C239.166 92.9807 239.044 93.005 238.921 93.005H230.234C229.691 94.7715 228.978 96.4817 228.108 98.1119L234.259 104.263C234.346 104.35 234.415 104.454 234.463 104.567C234.51 104.681 234.534 104.803 234.534 104.927C234.534 105.05 234.51 105.172 234.463 105.286C234.415 105.4 234.346 105.503 234.259 105.59L223.626 116.223C223.449 116.396 223.211 116.493 222.963 116.493C222.715 116.493 222.477 116.396 222.299 116.223L216.148 110.069C214.518 110.942 212.808 111.655 211.041 112.198V120.885C211.041 121.137 210.941 121.379 210.762 121.558C210.584 121.736 210.342 121.836 210.089 121.836L210.104 121.822ZM196.008 119.943H209.171V111.494C209.173 111.29 209.241 111.092 209.364 110.929C209.488 110.766 209.66 110.647 209.856 110.59C211.95 110.002 213.964 109.162 215.855 108.088C216.034 107.986 216.241 107.947 216.445 107.974C216.649 108.002 216.838 108.097 216.983 108.243L222.97 114.23L232.275 104.924L226.288 98.9373C226.142 98.7921 226.049 98.603 226.021 98.3993C225.994 98.1955 226.034 97.9884 226.136 97.8098C227.209 95.9188 228.048 93.9044 228.636 91.8109C228.693 91.6144 228.812 91.4417 228.975 91.3182C229.139 91.1948 229.337 91.1274 229.542 91.1259H237.991V77.9672H229.53C229.326 77.9651 229.128 77.8974 228.965 77.774C228.802 77.6507 228.683 77.4783 228.626 77.2822C228.038 75.1903 227.199 73.1775 226.126 71.288C226.028 71.1087 225.989 70.9025 226.017 70.6999C226.045 70.4972 226.138 70.3089 226.281 70.1629L232.275 64.1687L222.967 54.8635L216.978 60.8505C216.832 60.9943 216.643 61.0871 216.44 61.115C216.237 61.1428 216.03 61.1043 215.85 61.0051C213.959 59.9316 211.945 59.0913 209.852 58.5028C209.654 58.4477 209.48 58.3295 209.357 58.1662C209.233 58.003 209.166 57.8037 209.166 57.5989V49.1476H196.008V57.606C196.006 57.8106 195.939 58.0094 195.815 58.1726C195.692 58.3359 195.519 58.455 195.323 58.5123C193.232 59.1011 191.22 59.9405 189.331 61.0122C189.152 61.1123 188.944 61.1515 188.741 61.1241C188.537 61.0966 188.348 61.004 188.201 60.86L182.207 54.8635L172.902 64.1687L178.898 70.1629C179.042 70.309 179.135 70.4978 179.163 70.701C179.191 70.9041 179.152 71.1108 179.053 71.2903C177.98 73.1793 177.14 75.1912 176.551 77.2822C176.496 77.4794 176.377 77.6532 176.214 77.7769C176.051 77.9007 175.852 77.9675 175.647 77.9672H167.188V91.1259H175.632C175.837 91.1256 176.036 91.1924 176.2 91.3161C176.363 91.4398 176.481 91.6136 176.536 91.8109C177.125 93.9036 177.965 95.9171 179.039 97.8074C179.139 97.9869 179.178 98.1941 179.151 98.3977C179.123 98.6014 179.03 98.7906 178.886 98.9373L172.899 104.924L182.202 114.23L188.196 108.235C188.343 108.092 188.531 107.999 188.734 107.971C188.938 107.943 189.144 107.982 189.324 108.081C191.214 109.153 193.227 109.992 195.318 110.581C195.514 110.638 195.687 110.757 195.81 110.919C195.933 111.082 196.001 111.28 196.003 111.485V119.943H196.008Z" fill="#F83718"/>
<path fill-rule="evenodd" clip-rule="evenodd" d="M237.339 55.4342C236.409 55.4347 235.501 55.1595 234.728 54.6435C233.955 54.1275 233.353 53.3937 232.997 52.5352C232.641 51.6767 232.548 50.732 232.729 49.8205C232.91 48.909 233.358 48.0717 234.015 47.4145C234.672 46.7574 235.509 46.3099 236.421 46.1287C237.332 45.9475 238.277 46.0408 239.135 46.3966C239.994 46.7525 240.727 47.355 241.243 48.1279C241.76 48.9008 242.035 49.8094 242.034 50.7388C242.032 51.9835 241.537 53.1767 240.657 54.0568C239.777 54.937 238.584 55.4323 237.339 55.4342ZM237.339 53.7121C237.927 53.7121 238.503 53.5375 238.992 53.2104C239.482 52.8833 239.863 52.4185 240.088 51.8746C240.313 51.3307 240.372 50.7323 240.257 50.155C240.142 49.5777 239.858 49.0475 239.442 48.6314C239.026 48.2154 238.495 47.9322 237.918 47.8176C237.341 47.7031 236.742 47.7623 236.198 47.9879C235.655 48.2135 235.19 48.5953 234.864 49.0849C234.537 49.5746 234.363 50.1501 234.363 50.7388C234.366 51.5265 234.68 52.2812 235.238 52.8376C235.796 53.3939 236.551 53.7067 237.339 53.7073V53.7121Z" fill="#F83718"/>
<path fill-rule="evenodd" clip-rule="evenodd" d="M169.243 126.187C167.819 126.187 166.426 125.765 165.241 124.974C164.057 124.183 163.133 123.058 162.587 121.742C162.042 120.426 161.899 118.978 162.177 117.581C162.454 116.183 163.14 114.9 164.147 113.892C165.155 112.885 166.438 112.199 167.835 111.921C169.232 111.642 170.681 111.785 171.997 112.33C173.313 112.875 174.438 113.798 175.23 114.983C176.021 116.167 176.444 117.56 176.444 118.984C176.442 120.894 175.683 122.724 174.333 124.075C172.983 125.425 171.153 126.184 169.243 126.187ZM169.243 124.465C170.325 124.465 171.383 124.144 172.283 123.543C173.183 122.942 173.884 122.087 174.298 121.088C174.712 120.088 174.82 118.988 174.609 117.927C174.398 116.865 173.877 115.891 173.112 115.126C172.347 114.36 171.372 113.839 170.311 113.628C169.25 113.417 168.15 113.525 167.15 113.94C166.15 114.354 165.296 115.055 164.695 115.955C164.093 116.854 163.773 117.912 163.773 118.994C163.776 120.444 164.354 121.833 165.379 122.858C166.404 123.884 167.794 124.461 169.243 124.465Z" fill="#F83718"/>
<path fill-rule="evenodd" clip-rule="evenodd" d="M189.666 83.5379H198.355C198.463 83.0854 198.643 82.6532 198.888 82.2582L192.739 76.1284C190.954 78.2091 189.877 80.8043 189.666 83.5379Z" fill="#F83718"/>
<path fill-rule="evenodd" clip-rule="evenodd" d="M194.162 74.7012L200.304 80.8453C200.698 80.6003 201.129 80.4204 201.581 80.3125V71.609C198.842 71.8232 196.242 72.9065 194.162 74.7012Z" fill="#F83718"/>
<path fill-rule="evenodd" clip-rule="evenodd" d="M203.593 71.609V80.2982C204.044 80.4063 204.476 80.5853 204.871 80.8286L211.012 74.687C208.93 72.8978 206.331 71.8196 203.593 71.609Z" fill="#F83718"/>
<path fill-rule="evenodd" clip-rule="evenodd" d="M215.515 85.5505H206.826C206.718 86.0038 206.538 86.4367 206.293 86.8326L212.435 92.9743C214.225 90.8904 215.304 88.2898 215.515 85.5505Z" fill="#F83718"/>
<path fill-rule="evenodd" clip-rule="evenodd" d="M206.824 83.5382H215.515C215.301 80.7983 214.217 78.1984 212.423 76.1168L206.284 82.2585C206.532 82.6531 206.714 83.0853 206.824 83.5382Z" fill="#F83718"/>
<path fill-rule="evenodd" clip-rule="evenodd" d="M211.012 94.394L204.871 88.2595C204.476 88.505 204.045 88.6849 203.593 88.7923V97.4815C206.332 97.2685 208.931 96.1869 211.012 94.394Z" fill="#F83718"/>
<path fill-rule="evenodd" clip-rule="evenodd" d="M201.581 97.4744V88.7853C201.129 88.6768 200.697 88.4969 200.301 88.2524L194.159 94.3941C196.242 96.1844 198.842 97.2635 201.581 97.4744Z" fill="#F83718"/>
<path fill-rule="evenodd" clip-rule="evenodd" d="M192.737 92.9719L198.881 86.8302C198.635 86.4352 198.455 86.003 198.348 85.5505H189.666C189.874 88.288 190.95 90.8877 192.737 92.9719Z" fill="#F83718"/>
<path fill-rule="evenodd" clip-rule="evenodd" d="M191.315 94.3967C189.151 91.932 187.86 88.8229 187.642 85.5505H182.564C182.793 90.1677 184.616 94.5625 187.723 97.986L191.315 94.3967Z" fill="#F83718"/>
<path fill-rule="evenodd" clip-rule="evenodd" d="M182.564 83.538H187.642C187.861 80.2665 189.152 77.1582 191.315 74.6942L187.723 71.1049C184.617 74.5277 182.794 78.9216 182.564 83.538Z" fill="#F83718"/>
<path fill-rule="evenodd" clip-rule="evenodd" d="M189.145 69.682L192.737 73.2714C195.202 71.1098 198.31 69.8199 201.581 69.6011V64.5227C196.963 64.7501 192.568 66.5737 189.145 69.682Z" fill="#F83718"/>
<path fill-rule="evenodd" clip-rule="evenodd" d="M203.593 69.6011C206.864 69.8199 209.972 71.1098 212.437 73.2714L216.026 69.682C212.605 66.5737 208.21 64.7501 203.593 64.5227V69.6011Z" fill="#F83718"/>
<path fill-rule="evenodd" clip-rule="evenodd" d="M213.86 74.7013C216.022 77.1666 217.313 80.2754 217.532 83.5475H222.611C222.381 78.93 220.556 74.5351 217.449 71.1119L213.86 74.7013Z" fill="#F83718"/>
<path fill-rule="evenodd" clip-rule="evenodd" d="M222.611 85.5505H217.532C217.314 88.8235 216.023 91.9332 213.86 94.3991L217.449 97.9884C220.557 94.5646 222.381 90.1689 222.611 85.5505Z" fill="#F83718"/>
<path fill-rule="evenodd" clip-rule="evenodd" d="M212.437 95.8186C209.973 97.9818 206.865 99.2726 203.593 99.4912V104.57C208.21 104.34 212.605 102.516 216.026 99.408L212.437 95.8186Z" fill="#F83718"/>
<path fill-rule="evenodd" clip-rule="evenodd" d="M201.581 104.57V99.4912C198.309 99.2726 195.199 97.9818 192.735 95.8186L189.145 99.408C192.568 102.515 196.963 104.34 201.581 104.57Z" fill="#F83718"/>
<path d="M103.931 174C103.755 173.424 103.555 172.832 103.331 172.224C103.123 171.616 102.915 171.008 102.707 170.4H96.227C96.019 171.008 95.803 171.616 95.579 172.224C95.371 172.832 95.179 173.424 95.003 174H91.115C91.739 172.208 92.331 170.552 92.891 169.032C93.451 167.512 93.995 166.08 94.523 164.736C95.067 163.392 95.595 162.12 96.107 160.92C96.635 159.704 97.179 158.52 97.739 157.368H101.315C101.859 158.52 102.395 159.704 102.923 160.92C103.451 162.12 103.979 163.392 104.507 164.736C105.051 166.08 105.603 167.512 106.163 169.032C106.723 170.552 107.315 172.208 107.939 174H103.931ZM99.443 161.136C99.363 161.376 99.243 161.704 99.083 162.12C98.923 162.536 98.739 163.016 98.531 163.56C98.323 164.104 98.091 164.704 97.835 165.36C97.595 166.016 97.347 166.704 97.091 167.424H101.819C101.563 166.704 101.315 166.016 101.075 165.36C100.835 164.704 100.603 164.104 100.379 163.56C100.171 163.016 99.987 162.536 99.827 162.12C99.667 161.704 99.539 161.376 99.443 161.136ZM115.636 174.216C114.724 174.216 113.812 174.184 112.9 174.12C112.004 174.072 111.068 173.944 110.092 173.736V157.608C110.86 157.464 111.7 157.36 112.612 157.296C113.524 157.216 114.372 157.176 115.156 157.176C116.212 157.176 117.18 157.256 118.06 157.416C118.956 157.56 119.724 157.816 120.364 158.184C121.004 158.552 121.5 159.04 121.852 159.648C122.22 160.24 122.404 160.976 122.404 161.856C122.404 163.184 121.764 164.232 120.484 165C121.54 165.4 122.26 165.944 122.644 166.632C123.028 167.32 123.22 168.096 123.22 168.96C123.22 170.704 122.58 172.016 121.3 172.896C120.036 173.776 118.148 174.216 115.636 174.216ZM113.74 166.752V171.048C114.012 171.08 114.308 171.104 114.628 171.12C114.948 171.136 115.3 171.144 115.684 171.144C116.804 171.144 117.708 170.984 118.396 170.664C119.084 170.344 119.428 169.752 119.428 168.888C119.428 168.12 119.14 167.576 118.564 167.256C117.988 166.92 117.164 166.752 116.092 166.752H113.74ZM113.74 163.896H115.564C116.716 163.896 117.54 163.752 118.036 163.464C118.532 163.16 118.78 162.68 118.78 162.024C118.78 161.352 118.524 160.88 118.012 160.608C117.5 160.336 116.748 160.2 115.756 160.2C115.436 160.2 115.092 160.208 114.724 160.224C114.356 160.224 114.028 160.24 113.74 160.272V163.896ZM138.131 157.368V160.56H133.115V174H129.371V160.56H124.355V157.368H138.131ZM143.119 165.672C143.119 166.488 143.215 167.224 143.407 167.88C143.615 168.536 143.903 169.104 144.271 169.584C144.655 170.048 145.119 170.408 145.663 170.664C146.207 170.92 146.831 171.048 147.535 171.048C148.223 171.048 148.839 170.92 149.383 170.664C149.943 170.408 150.407 170.048 150.775 169.584C151.159 169.104 151.447 168.536 151.639 167.88C151.847 167.224 151.951 166.488 151.951 165.672C151.951 164.856 151.847 164.12 151.639 163.464C151.447 162.792 151.159 162.224 150.775 161.76C150.407 161.28 149.943 160.912 149.383 160.656C148.839 160.4 148.223 160.272 147.535 160.272C146.831 160.272 146.207 160.408 145.663 160.68C145.119 160.936 144.655 161.304 144.271 161.784C143.903 162.248 143.615 162.816 143.407 163.488C143.215 164.144 143.119 164.872 143.119 165.672ZM155.815 165.672C155.815 167.096 155.599 168.352 155.167 169.44C154.751 170.512 154.175 171.416 153.439 172.152C152.703 172.872 151.823 173.416 150.799 173.784C149.791 174.152 148.703 174.336 147.535 174.336C146.399 174.336 145.327 174.152 144.319 173.784C143.311 173.416 142.431 172.872 141.679 172.152C140.927 171.416 140.335 170.512 139.903 169.44C139.471 168.352 139.255 167.096 139.255 165.672C139.255 164.248 139.479 163 139.927 161.928C140.375 160.84 140.975 159.928 141.727 159.192C142.495 158.456 143.375 157.904 144.367 157.536C145.375 157.168 146.431 156.984 147.535 156.984C148.671 156.984 149.743 157.168 150.751 157.536C151.759 157.904 152.639 158.456 153.391 159.192C154.143 159.928 154.735 160.84 155.167 161.928C155.599 163 155.815 164.248 155.815 165.672ZM163.352 157.368C163.64 157.896 163.968 158.552 164.336 159.336C164.72 160.104 165.112 160.944 165.512 161.856C165.928 162.752 166.336 163.672 166.736 164.616C167.136 165.56 167.512 166.448 167.864 167.28C168.216 166.448 168.592 165.56 168.992 164.616C169.392 163.672 169.792 162.752 170.192 161.856C170.608 160.944 171 160.104 171.368 159.336C171.752 158.552 172.088 157.896 172.376 157.368H175.784C175.944 158.472 176.088 159.712 176.216 161.088C176.36 162.448 176.48 163.872 176.576 165.36C176.688 166.832 176.784 168.312 176.864 169.8C176.96 171.288 177.04 172.688 177.104 174H173.456C173.408 172.384 173.344 170.624 173.264 168.72C173.184 166.816 173.064 164.896 172.904 162.96C172.616 163.632 172.296 164.376 171.944 165.192C171.592 166.008 171.24 166.824 170.888 167.64C170.552 168.456 170.224 169.24 169.904 169.992C169.584 170.728 169.312 171.36 169.088 171.888H166.472C166.248 171.36 165.976 170.728 165.656 169.992C165.336 169.24 165 168.456 164.648 167.64C164.312 166.824 163.968 166.008 163.616 165.192C163.264 164.376 162.944 163.632 162.656 162.96C162.496 164.896 162.376 166.816 162.296 168.72C162.216 170.624 162.152 172.384 162.104 174H158.456C158.52 172.688 158.592 171.288 158.672 169.8C158.768 168.312 158.864 166.832 158.96 165.36C159.072 163.872 159.192 162.448 159.32 161.088C159.464 159.712 159.616 158.472 159.776 157.368H163.352ZM191.611 174C191.435 173.424 191.235 172.832 191.011 172.224C190.803 171.616 190.595 171.008 190.387 170.4H183.907C183.699 171.008 183.483 171.616 183.259 172.224C183.051 172.832 182.859 173.424 182.683 174H178.795C179.419 172.208 180.011 170.552 180.571 169.032C181.131 167.512 181.675 166.08 182.203 164.736C182.747 163.392 183.275 162.12 183.787 160.92C184.315 159.704 184.859 158.52 185.419 157.368H188.995C189.539 158.52 190.075 159.704 190.603 160.92C191.131 162.12 191.659 163.392 192.187 164.736C192.731 166.08 193.283 167.512 193.843 169.032C194.403 170.552 194.995 172.208 195.619 174H191.611ZM187.123 161.136C187.043 161.376 186.923 161.704 186.763 162.12C186.603 162.536 186.419 163.016 186.211 163.56C186.003 164.104 185.771 164.704 185.515 165.36C185.275 166.016 185.027 166.704 184.771 167.424H189.499C189.243 166.704 188.995 166.016 188.755 165.36C188.515 164.704 188.283 164.104 188.059 163.56C187.851 163.016 187.667 162.536 187.507 162.12C187.347 161.704 187.219 161.376 187.123 161.136ZM208.139 157.368V160.56H203.123V174H199.379V160.56H194.363V157.368H208.139ZM210.545 174V157.368H214.265V167.184C214.841 166.32 215.457 165.424 216.113 164.496C216.769 163.552 217.425 162.648 218.081 161.784C218.753 160.904 219.409 160.08 220.049 159.312C220.689 158.544 221.273 157.896 221.801 157.368H224.849V174H221.153V163.104C219.745 164.752 218.417 166.504 217.169 168.36C215.921 170.216 214.761 172.096 213.689 174H210.545ZM230.174 163.848H232.694C233.126 163.848 233.526 163.816 233.894 163.752C234.278 163.688 234.606 163.576 234.878 163.416C235.166 163.256 235.39 163.048 235.55 162.792C235.71 162.536 235.79 162.216 235.79 161.832C235.79 161.288 235.574 160.88 235.142 160.608C234.71 160.336 234.102 160.2 233.318 160.2C232.438 160.2 231.67 160.304 231.014 160.512C230.358 160.704 229.734 160.968 229.142 161.304L227.942 158.352C228.582 157.952 229.35 157.632 230.246 157.392C231.158 157.136 232.19 157.008 233.342 157.008C234.238 157.008 235.07 157.112 235.838 157.32C236.606 157.512 237.27 157.808 237.83 158.208C238.39 158.592 238.822 159.088 239.126 159.696C239.446 160.288 239.606 160.984 239.606 161.784C239.606 162.392 239.438 163 239.102 163.608C238.782 164.2 238.286 164.704 237.614 165.12C237.982 165.312 238.326 165.536 238.646 165.792C238.982 166.048 239.27 166.344 239.51 166.68C239.766 167.016 239.966 167.4 240.11 167.832C240.254 168.248 240.326 168.72 240.326 169.248C240.326 171.024 239.694 172.32 238.43 173.136C237.182 173.936 235.438 174.336 233.198 174.336C232.638 174.336 232.078 174.296 231.518 174.216C230.974 174.136 230.446 174.04 229.934 173.928C229.438 173.8 228.966 173.656 228.518 173.496C228.086 173.336 227.702 173.168 227.366 172.992L228.47 170.064C228.694 170.16 228.966 170.272 229.286 170.4C229.622 170.512 229.99 170.624 230.39 170.736C230.79 170.848 231.206 170.944 231.638 171.024C232.07 171.104 232.502 171.144 232.934 171.144C233.99 171.144 234.838 170.992 235.478 170.688C236.134 170.384 236.462 169.856 236.462 169.104C236.462 168.64 236.358 168.264 236.15 167.976C235.942 167.688 235.654 167.472 235.286 167.328C234.934 167.168 234.51 167.064 234.014 167.016C233.534 166.952 233.006 166.92 232.43 166.92H230.174V163.848ZM254.236 174C254.06 173.424 253.86 172.832 253.636 172.224C253.428 171.616 253.22 171.008 253.012 170.4H246.532C246.324 171.008 246.108 171.616 245.884 172.224C245.676 172.832 245.484 173.424 245.308 174H241.42C242.044 172.208 242.636 170.552 243.196 169.032C243.756 167.512 244.3 166.08 244.828 164.736C245.372 163.392 245.9 162.12 246.412 160.92C246.94 159.704 247.484 158.52 248.044 157.368H251.62C252.164 158.52 252.7 159.704 253.228 160.92C253.756 162.12 254.284 163.392 254.812 164.736C255.356 166.08 255.908 167.512 256.468 169.032C257.028 170.552 257.62 172.208 258.244 174H254.236ZM249.748 161.136C249.668 161.376 249.548 161.704 249.388 162.12C249.228 162.536 249.044 163.016 248.836 163.56C248.628 164.104 248.396 164.704 248.14 165.36C247.9 166.016 247.652 166.704 247.396 167.424H252.124C251.868 166.704 251.62 166.016 251.38 165.36C251.14 164.704 250.908 164.104 250.684 163.56C250.476 163.016 250.292 162.536 250.132 162.12C249.972 161.704 249.844 161.376 249.748 161.136ZM274.077 170.832H276.957V178.44H273.357V174H260.397V157.368H264.141V170.832H270.333V157.368H274.077V170.832ZM279.358 174V157.368H283.078V167.184C283.654 166.32 284.27 165.424 284.926 164.496C285.582 163.552 286.238 162.648 286.894 161.784C287.566 160.904 288.222 160.08 288.862 159.312C289.502 158.544 290.086 157.896 290.614 157.368H293.662V174H289.966V163.104C288.558 164.752 287.23 166.504 285.982 168.36C284.734 170.216 283.574 172.096 282.502 174H279.358ZM304.986 160.416C304.506 160.416 304.042 160.456 303.594 160.536C303.162 160.6 302.778 160.72 302.442 160.896C302.106 161.056 301.834 161.288 301.626 161.592C301.418 161.88 301.314 162.248 301.314 162.696C301.314 163.544 301.61 164.128 302.202 164.448C302.81 164.768 303.706 164.928 304.89 164.928H306.45V160.44C306.258 160.424 306.05 160.416 305.826 160.416C305.602 160.416 305.322 160.416 304.986 160.416ZM305.154 157.2C305.826 157.2 306.61 157.24 307.506 157.32C308.418 157.4 309.314 157.536 310.194 157.728V174H306.45V168.024H305.298C305.09 168.024 304.89 168.024 304.698 168.024C304.506 168.024 304.274 168.008 304.002 167.976C303.474 168.696 302.89 169.6 302.25 170.688C301.626 171.76 301.042 172.864 300.498 174H296.538C296.826 173.344 297.13 172.696 297.45 172.056C297.786 171.416 298.122 170.808 298.458 170.232C298.794 169.656 299.122 169.128 299.442 168.648C299.762 168.152 300.058 167.72 300.33 167.352C299.978 167.192 299.626 166.984 299.274 166.728C298.938 166.456 298.634 166.136 298.362 165.768C298.09 165.4 297.866 164.968 297.69 164.472C297.53 163.96 297.45 163.376 297.45 162.72C297.45 161.808 297.626 161.008 297.978 160.32C298.346 159.632 298.858 159.056 299.514 158.592C300.186 158.128 300.994 157.784 301.938 157.56C302.898 157.32 303.97 157.2 305.154 157.2ZM79.6483 189.536V192.272H80.8723C82.1043 192.272 83.2003 192.368 84.1603 192.56C85.1363 192.752 85.9523 193.064 86.6083 193.496C87.2803 193.928 87.7923 194.488 88.1443 195.176C88.4963 195.864 88.6723 196.704 88.6723 197.696C88.6723 199.536 88.0003 200.912 86.6563 201.824C85.3283 202.72 83.4243 203.168 80.9443 203.168C80.2723 203.168 79.5043 203.128 78.6403 203.048C77.7923 202.968 76.9363 202.824 76.0723 202.616V186.368H87.1123V189.536H79.6483ZM81.1363 199.976C81.6323 199.976 82.1043 199.944 82.5523 199.88C83.0003 199.816 83.3923 199.704 83.7283 199.544C84.0803 199.368 84.3603 199.136 84.5683 198.848C84.7763 198.56 84.8803 198.184 84.8803 197.72C84.8803 197.24 84.7843 196.848 84.5923 196.544C84.4003 196.24 84.1283 196 83.7763 195.824C83.4243 195.648 82.9923 195.528 82.4803 195.464C81.9683 195.4 81.3923 195.368 80.7523 195.368H79.6483V199.928C79.8243 199.944 80.0323 199.96 80.2723 199.976C80.5283 199.976 80.8163 199.976 81.1363 199.976ZM91.6817 203V186.368H95.4017V196.184C95.9777 195.32 96.5937 194.424 97.2497 193.496C97.9057 192.552 98.5617 191.648 99.2177 190.784C99.8897 189.904 100.546 189.08 101.186 188.312C101.826 187.544 102.41 186.896 102.938 186.368H105.986V203H102.29V192.104C100.882 193.752 99.5537 195.504 98.3057 197.36C97.0577 199.216 95.8977 201.096 94.8257 203H91.6817ZM111.31 192.848H113.83C114.262 192.848 114.662 192.816 115.03 192.752C115.414 192.688 115.742 192.576 116.014 192.416C116.302 192.256 116.526 192.048 116.686 191.792C116.846 191.536 116.926 191.216 116.926 190.832C116.926 190.288 116.71 189.88 116.278 189.608C115.846 189.336 115.238 189.2 114.454 189.2C113.574 189.2 112.806 189.304 112.15 189.512C111.494 189.704 110.87 189.968 110.278 190.304L109.078 187.352C109.718 186.952 110.486 186.632 111.382 186.392C112.294 186.136 113.326 186.008 114.478 186.008C115.374 186.008 116.206 186.112 116.974 186.32C117.742 186.512 118.406 186.808 118.966 187.208C119.526 187.592 119.958 188.088 120.262 188.696C120.582 189.288 120.742 189.984 120.742 190.784C120.742 191.392 120.574 192 120.238 192.608C119.918 193.2 119.422 193.704 118.75 194.12C119.118 194.312 119.462 194.536 119.782 194.792C120.118 195.048 120.406 195.344 120.646 195.68C120.902 196.016 121.102 196.4 121.246 196.832C121.39 197.248 121.462 197.72 121.462 198.248C121.462 200.024 120.83 201.32 119.566 202.136C118.318 202.936 116.574 203.336 114.334 203.336C113.774 203.336 113.214 203.296 112.654 203.216C112.11 203.136 111.582 203.04 111.07 202.928C110.574 202.8 110.102 202.656 109.654 202.496C109.222 202.336 108.838 202.168 108.502 201.992L109.606 199.064C109.83 199.16 110.102 199.272 110.422 199.4C110.758 199.512 111.126 199.624 111.526 199.736C111.926 199.848 112.342 199.944 112.774 200.024C113.206 200.104 113.638 200.144 114.07 200.144C115.126 200.144 115.974 199.992 116.614 199.688C117.27 199.384 117.598 198.856 117.598 198.104C117.598 197.64 117.494 197.264 117.286 196.976C117.078 196.688 116.79 196.472 116.422 196.328C116.07 196.168 115.646 196.064 115.15 196.016C114.67 195.952 114.142 195.92 113.566 195.92H111.31V192.848ZM134.503 186.368H138.247V203H134.503V195.944H128.215V203H124.471V186.368H128.215V192.728H134.503V186.368ZM142.096 203V186.368H153.328V189.512H145.84V192.776H152.488V195.848H145.84V199.856H153.88V203H142.096ZM164.234 203.336C161.53 203.336 159.466 202.584 158.042 201.08C156.634 199.576 155.93 197.44 155.93 194.672C155.93 193.296 156.146 192.072 156.578 191C157.01 189.912 157.602 189 158.354 188.264C159.106 187.512 160.002 186.944 161.042 186.56C162.082 186.176 163.21 185.984 164.426 185.984C165.13 185.984 165.77 186.04 166.346 186.152C166.922 186.248 167.426 186.368 167.858 186.512C168.29 186.64 168.65 186.776 168.938 186.92C169.226 187.064 169.434 187.176 169.562 187.256L168.482 190.28C167.97 190.008 167.37 189.776 166.682 189.584C166.01 189.392 165.242 189.296 164.378 189.296C163.802 189.296 163.234 189.392 162.674 189.584C162.13 189.776 161.642 190.088 161.21 190.52C160.794 190.936 160.458 191.48 160.202 192.152C159.946 192.824 159.818 193.64 159.818 194.6C159.818 195.368 159.898 196.088 160.058 196.76C160.234 197.416 160.506 197.984 160.874 198.464C161.258 198.944 161.754 199.328 162.362 199.616C162.97 199.888 163.706 200.024 164.57 200.024C165.114 200.024 165.602 199.992 166.034 199.928C166.466 199.864 166.85 199.792 167.186 199.712C167.522 199.616 167.818 199.512 168.074 199.4C168.33 199.288 168.562 199.184 168.77 199.088L169.802 202.088C169.274 202.408 168.53 202.696 167.57 202.952C166.61 203.208 165.498 203.336 164.234 203.336ZM170.635 194.216H177.595V197.456H170.635V194.216ZM193.791 186.368V203H190.047V189.536H183.855V203H180.111V186.368H193.791ZM202.635 186.176C205.115 186.176 207.019 186.616 208.347 187.496C209.675 188.36 210.339 189.784 210.339 191.768C210.339 193.768 209.667 195.216 208.323 196.112C206.979 196.992 205.059 197.432 202.563 197.432H201.387V203H197.643V186.608C198.459 186.448 199.323 186.336 200.235 186.272C201.147 186.208 201.947 186.176 202.635 186.176ZM202.875 189.368C202.603 189.368 202.331 189.376 202.059 189.392C201.803 189.408 201.579 189.424 201.387 189.44V194.24H202.563C203.859 194.24 204.835 194.064 205.491 193.712C206.147 193.36 206.475 192.704 206.475 191.744C206.475 191.28 206.387 190.896 206.211 190.592C206.051 190.288 205.811 190.048 205.491 189.872C205.187 189.68 204.811 189.552 204.363 189.488C203.915 189.408 203.419 189.368 202.875 189.368ZM216.232 194.672C216.232 195.488 216.328 196.224 216.52 196.88C216.728 197.536 217.016 198.104 217.384 198.584C217.768 199.048 218.232 199.408 218.776 199.664C219.32 199.92 219.944 200.048 220.648 200.048C221.336 200.048 221.952 199.92 222.496 199.664C223.056 199.408 223.52 199.048 223.888 198.584C224.272 198.104 224.56 197.536 224.752 196.88C224.96 196.224 225.064 195.488 225.064 194.672C225.064 193.856 224.96 193.12 224.752 192.464C224.56 191.792 224.272 191.224 223.888 190.76C223.52 190.28 223.056 189.912 222.496 189.656C221.952 189.4 221.336 189.272 220.648 189.272C219.944 189.272 219.32 189.408 218.776 189.68C218.232 189.936 217.768 190.304 217.384 190.784C217.016 191.248 216.728 191.816 216.52 192.488C216.328 193.144 216.232 193.872 216.232 194.672ZM228.928 194.672C228.928 196.096 228.712 197.352 228.28 198.44C227.864 199.512 227.288 200.416 226.552 201.152C225.816 201.872 224.936 202.416 223.912 202.784C222.904 203.152 221.816 203.336 220.648 203.336C219.512 203.336 218.44 203.152 217.432 202.784C216.424 202.416 215.544 201.872 214.792 201.152C214.04 200.416 213.448 199.512 213.016 198.44C212.584 197.352 212.368 196.096 212.368 194.672C212.368 193.248 212.592 192 213.04 190.928C213.488 189.84 214.088 188.928 214.84 188.192C215.608 187.456 216.488 186.904 217.48 186.536C218.488 186.168 219.544 185.984 220.648 185.984C221.784 185.984 222.856 186.168 223.864 186.536C224.872 186.904 225.752 187.456 226.504 188.192C227.256 188.928 227.848 189.84 228.28 190.928C228.712 192 228.928 193.248 228.928 194.672ZM245.729 199.832H248.609V207.44H245.009V203H232.049V186.368H235.793V199.832H241.985V186.368H245.729V199.832ZM251.01 203V186.368H262.242V189.512H254.754V192.776H261.402V195.848H254.754V199.856H262.794V203H251.01ZM273.149 203.336C270.445 203.336 268.381 202.584 266.957 201.08C265.549 199.576 264.845 197.44 264.845 194.672C264.845 193.296 265.061 192.072 265.493 191C265.925 189.912 266.517 189 267.269 188.264C268.021 187.512 268.917 186.944 269.957 186.56C270.997 186.176 272.125 185.984 273.341 185.984C274.045 185.984 274.685 186.04 275.261 186.152C275.837 186.248 276.341 186.368 276.773 186.512C277.205 186.64 277.565 186.776 277.853 186.92C278.141 187.064 278.349 187.176 278.477 187.256L277.397 190.28C276.885 190.008 276.285 189.776 275.597 189.584C274.925 189.392 274.157 189.296 273.293 189.296C272.717 189.296 272.149 189.392 271.589 189.584C271.045 189.776 270.557 190.088 270.125 190.52C269.709 190.936 269.373 191.48 269.117 192.152C268.861 192.824 268.733 193.64 268.733 194.6C268.733 195.368 268.813 196.088 268.973 196.76C269.149 197.416 269.421 197.984 269.789 198.464C270.173 198.944 270.669 199.328 271.277 199.616C271.885 199.888 272.621 200.024 273.485 200.024C274.029 200.024 274.517 199.992 274.949 199.928C275.381 199.864 275.765 199.792 276.101 199.712C276.437 199.616 276.733 199.512 276.989 199.4C277.245 199.288 277.477 199.184 277.685 199.088L278.717 202.088C278.189 202.408 277.445 202.696 276.485 202.952C275.525 203.208 274.413 203.336 273.149 203.336ZM288.313 203.336C285.609 203.336 283.545 202.584 282.121 201.08C280.713 199.576 280.009 197.44 280.009 194.672C280.009 193.296 280.225 192.072 280.657 191C281.089 189.912 281.681 189 282.433 188.264C283.185 187.512 284.081 186.944 285.121 186.56C286.161 186.176 287.289 185.984 288.505 185.984C289.209 185.984 289.849 186.04 290.425 186.152C291.001 186.248 291.505 186.368 291.937 186.512C292.369 186.64 292.729 186.776 293.017 186.92C293.305 187.064 293.513 187.176 293.641 187.256L292.561 190.28C292.049 190.008 291.449 189.776 290.761 189.584C290.089 189.392 289.321 189.296 288.457 189.296C287.881 189.296 287.313 189.392 286.753 189.584C286.209 189.776 285.721 190.088 285.289 190.52C284.873 190.936 284.537 191.48 284.281 192.152C284.025 192.824 283.897 193.64 283.897 194.6C283.897 195.368 283.977 196.088 284.137 196.76C284.313 197.416 284.585 197.984 284.953 198.464C285.337 198.944 285.833 199.328 286.441 199.616C287.049 199.888 287.785 200.024 288.649 200.024C289.193 200.024 289.681 199.992 290.113 199.928C290.545 199.864 290.929 199.792 291.265 199.712C291.601 199.616 291.897 199.512 292.153 199.4C292.409 199.288 292.641 199.184 292.849 199.088L293.881 202.088C293.353 202.408 292.609 202.696 291.649 202.952C290.689 203.208 289.577 203.336 288.313 203.336ZM298.826 194.672C298.826 195.488 298.922 196.224 299.114 196.88C299.322 197.536 299.61 198.104 299.978 198.584C300.362 199.048 300.826 199.408 301.37 199.664C301.914 199.92 302.538 200.048 303.242 200.048C303.93 200.048 304.546 199.92 305.09 199.664C305.65 199.408 306.114 199.048 306.482 198.584C306.866 198.104 307.154 197.536 307.346 196.88C307.554 196.224 307.658 195.488 307.658 194.672C307.658 193.856 307.554 193.12 307.346 192.464C307.154 191.792 306.866 191.224 306.482 190.76C306.114 190.28 305.65 189.912 305.09 189.656C304.546 189.4 303.93 189.272 303.242 189.272C302.538 189.272 301.914 189.408 301.37 189.68C300.826 189.936 300.362 190.304 299.978 190.784C299.61 191.248 299.322 191.816 299.114 192.488C298.922 193.144 298.826 193.872 298.826 194.672ZM311.522 194.672C311.522 196.096 311.306 197.352 310.874 198.44C310.458 199.512 309.882 200.416 309.146 201.152C308.41 201.872 307.53 202.416 306.506 202.784C305.498 203.152 304.41 203.336 303.242 203.336C302.106 203.336 301.034 203.152 300.026 202.784C299.018 202.416 298.138 201.872 297.386 201.152C296.634 200.416 296.042 199.512 295.61 198.44C295.178 197.352 294.962 196.096 294.962 194.672C294.962 193.248 295.186 192 295.634 190.928C296.082 189.84 296.682 188.928 297.434 188.192C298.202 187.456 299.082 186.904 300.074 186.536C301.082 186.168 302.138 185.984 303.242 185.984C304.378 185.984 305.45 186.168 306.458 186.536C307.466 186.904 308.346 187.456 309.098 188.192C309.85 188.928 310.442 189.84 310.874 190.928C311.306 192 311.522 193.248 311.522 194.672ZM320.187 203.216C319.275 203.216 318.363 203.184 317.451 203.12C316.555 203.072 315.619 202.944 314.643 202.736V186.608C315.411 186.464 316.251 186.36 317.163 186.296C318.075 186.216 318.923 186.176 319.707 186.176C320.763 186.176 321.731 186.256 322.611 186.416C323.507 186.56 324.275 186.816 324.915 187.184C325.555 187.552 326.051 188.04 326.403 188.648C326.771 189.24 326.955 189.976 326.955 190.856C326.955 192.184 326.315 193.232 325.035 194C326.091 194.4 326.811 194.944 327.195 195.632C327.579 196.32 327.771 197.096 327.771 197.96C327.771 199.704 327.131 201.016 325.851 201.896C324.587 202.776 322.699 203.216 320.187 203.216ZM318.291 195.752V200.048C318.563 200.08 318.859 200.104 319.179 200.12C319.499 200.136 319.851 200.144 320.235 200.144C321.355 200.144 322.259 199.984 322.947 199.664C323.635 199.344 323.979 198.752 323.979 197.888C323.979 197.12 323.691 196.576 323.115 196.256C322.539 195.92 321.715 195.752 320.643 195.752H318.291ZM318.291 192.896H320.115C321.267 192.896 322.091 192.752 322.587 192.464C323.083 192.16 323.331 191.68 323.331 191.024C323.331 190.352 323.075 189.88 322.563 189.608C322.051 189.336 321.299 189.2 320.307 189.2C319.987 189.2 319.643 189.208 319.275 189.224C318.907 189.224 318.579 189.24 318.291 189.272V192.896Z" fill="black"/>
</svg>
